<?xml version="1.0" encoding="UTF-8"?>
<svg version="1.1" xmlns="http://www.w3.org/2000/svg" width="500" height="500">
<path d="M0 0 C165 0 330 0 500 0 C500 165 500 330 500 500 C335 500 170 500 0 500 C0 335 0 170 0 0 Z " fill="#FEFEFE" transform="translate(0,0)"/>
<path d="M0 0 C0.84780029 -0.0095874 1.69560059 -0.0191748 2.5690918 -0.02905273 C17.29983072 0.05002883 29.51888415 6.22610383 40.875 15.25 C41.74511719 15.91128906 42.61523438 16.57257813 43.51171875 17.25390625 C53.20955775 25.44497357 59.63957016 40.89570164 60.875 53.25 C61.49246094 53.34796875 62.10992187 53.4459375 62.74609375 53.546875 C68.95357181 54.64286808 74.25529215 56.41210362 79.875 59.25 C80.74125 59.6625 81.6075 60.075 82.5 60.5 C86.20449892 63.22963078 88.95903853 66.71465769 91.875 70.25 C92.6175 71.11625 93.36 71.9825 94.125 72.875 C99.06417529 79.57816646 100.05543553 85.37586438 100.0625 93.5 C100.07474609 94.22574219 100.08699219 94.95148438 100.09960938 95.69921875 C100.13057059 107.2787143 96.20898309 115.38534127 88.33203125 123.84765625 C77.36001683 134.57546049 65.56855006 135.7030058 50.8046875 135.54296875 C49.27198709 135.53736188 47.73928124 135.53309695 46.20657349 135.53010559 C42.20508543 135.51874251 38.20393275 135.48935082 34.20257568 135.45599365 C30.10645075 135.42510681 26.01027074 135.41156079 21.9140625 135.39648438 C13.90088909 135.36447128 5.88798646 135.31338069 -2.125 135.25 C-2.455 133.93 -2.785 132.61 -3.125 131.25 C-3.785 131.25 -4.445 131.25 -5.125 131.25 C-5.125 130.59 -5.125 129.93 -5.125 129.25 C-5.785 129.25 -6.445 129.25 -7.125 129.25 C-7.125 131.23 -7.125 133.21 -7.125 135.25 C-9.89065382 136.17188461 -11.50783702 136.36785222 -14.35546875 136.34765625 C-15.15791016 136.34443359 -15.96035156 136.34121094 -16.78710938 136.33789062 C-17.62048828 136.32951172 -18.45386719 136.32113281 -19.3125 136.3125 C-20.5799707 136.30573242 -20.5799707 136.30573242 -21.87304688 136.29882812 C-23.95706155 136.28705403 -26.04103977 136.2691189 -28.125 136.25 C-28.23457031 136.89066406 -28.34414062 137.53132812 -28.45703125 138.19140625 C-30.91046713 151.5755971 -30.91046713 151.5755971 -35.6875 155.1875 C-38.125 156.25 -38.125 156.25 -40.125 156.25 C-37.125 146.25 -37.125 146.25 -34.125 136.25 C-36.06765747 136.28927612 -36.06765747 136.28927612 -38.04956055 136.3293457 C-42.91184822 136.42069869 -47.77406207 136.47755533 -52.63696289 136.5246582 C-54.73084319 136.54961026 -56.82463814 136.58358455 -58.91821289 136.62719727 C-74.29385901 136.93918818 -86.86829497 136.52307818 -99.19140625 126.14453125 C-102.27256275 123.12562033 -104.75825351 119.84592774 -107.125 116.25 C-107.99125 114.9815625 -107.99125 114.9815625 -108.875 113.6875 C-112.20126924 107.20127499 -112.48982021 100.97398143 -112.5 93.8125 C-112.52449219 92.90951172 -112.54898438 92.00652344 -112.57421875 91.07617188 C-112.61885972 80.80130752 -107.89420838 73.71761877 -101.125 66.25 C-90.28326773 55.65846155 -77.53113229 54.59137754 -63.125 54.25 C-63.03025391 53.06857422 -63.03025391 53.06857422 -62.93359375 51.86328125 C-61.18562547 36.31556342 -52.66486357 23.75539126 -41.0625 13.5625 C-28.65568383 3.84382733 -15.54540061 0.15648313 0 0 Z " fill="#308FD9" transform="translate(248.125,142.75)"/>
<path d="M0 0 C1.50433594 -0.0299707 1.50433594 -0.0299707 3.0390625 -0.06054688 C10.42097168 -0.05571578 16.1949793 1.0074793 21.625 6.4375 C23.295625 6.6540625 23.295625 6.6540625 25 6.875 C28.63108123 7.43844364 30.15681506 7.77945468 32.625 10.4375 C33.375 13.125 33.375 13.125 33.625 15.4375 C28.95038149 15.76363618 26.45825617 15.14332788 22.625 12.4375 C23.615 13.365625 23.615 13.365625 24.625 14.3125 C26.625 16.4375 26.625 16.4375 26.625 18.4375 C28.275 18.4375 29.925 18.4375 31.625 18.4375 C31.99625 19.3965625 31.99625 19.3965625 32.375 20.375 C33.44062433 22.62491541 33.44062433 22.62491541 35.75 23.1875 C36.36875 23.27 36.9875 23.3525 37.625 23.4375 C37.625 24.7575 37.625 26.0775 37.625 27.4375 C32.10668701 26.81041898 32.10668701 26.81041898 29.6875 24.9375 C26.8142113 22.84783549 24.10484967 22.77210093 20.625 22.4375 C20.625 23.4275 20.625 24.4175 20.625 25.4375 C22.2028125 25.31375 22.2028125 25.31375 23.8125 25.1875 C27.625 25.4375 27.625 25.4375 30.5 26.6875 C33.89508967 31.08114546 33.53142122 36.02694514 33.625 41.4375 C38.10633574 42.16006829 38.10633574 42.16006829 42.625 42.4375 C42.625 40.7875 42.625 39.1375 42.625 37.4375 C42.2125 37.9325 41.8 38.4275 41.375 38.9375 C39.625 40.4375 39.625 40.4375 35.625 40.4375 C35.625 37.1375 35.625 33.8375 35.625 30.4375 C36.615 30.4375 37.605 30.4375 38.625 30.4375 C38.625 29.7775 38.625 29.1175 38.625 28.4375 C39.285 28.4375 39.945 28.4375 40.625 28.4375 C40.625 27.7775 40.625 27.1175 40.625 26.4375 C41.285 26.4375 41.945 26.4375 42.625 26.4375 C42.625 27.4275 42.625 28.4175 42.625 29.4375 C43.615 29.4375 44.605 29.4375 45.625 29.4375 C45.67894705 32.04194348 45.71864469 34.64526998 45.75 37.25 C45.76675781 37.98798828 45.78351563 38.72597656 45.80078125 39.48632812 C45.83574628 43.34996426 45.81897555 45.14653668 43.625 48.4375 C39.8399722 48.73436493 36.70757545 48.45600829 33 47.625 C31.88625 47.563125 30.7725 47.50125 29.625 47.4375 C28.62533203 48.63826172 28.62533203 48.63826172 27.60546875 49.86328125 C23.2174601 53.65318649 19.19345397 53.32744878 13.5625 53.4375 C12.56927734 53.48777344 11.57605469 53.53804687 10.55273438 53.58984375 C5.32247442 53.76594678 2.75264565 53.8482068 -1.375 50.4375 C-3.59413882 50.01456909 -3.59413882 50.01456909 -5.875 50 C-9.29945089 49.74048642 -10.15219716 49.61682911 -12.9375 47.375 C-13.411875 46.735625 -13.88625 46.09625 -14.375 45.4375 C-12.62045615 48.61984105 -12.62045615 48.61984105 -10.375 51.4375 C-8.12084622 51.72039181 -5.86659344 51.8852119 -3.6015625 52.05859375 C-1.375 52.4375 -1.375 52.4375 1.625 54.4375 C1.625 55.4275 1.625 56.4175 1.625 57.4375 C-3.77199384 59.23649795 -10.38685953 59.74702349 -15.68359375 57.42578125 C-18.66139785 55.36422457 -20.2193105 53.90456849 -21.375 50.4375 C-22.05383212 43.42290146 -22.05383212 43.42290146 -19.4375 39.625 C-13.47228075 35.36412911 -6.65537182 34.15490061 0.4609375 32.8671875 C2.79310643 32.45113829 2.79310643 32.45113829 5.625 31.4375 C7.18618428 31.37009135 8.7500252 31.35235544 10.3125 31.375 C11.52486328 31.38853516 11.52486328 31.38853516 12.76171875 31.40234375 C13.37660156 31.41394531 13.99148438 31.42554688 14.625 31.4375 C14.625 30.4475 14.625 29.4575 14.625 28.4375 C13.655625 28.458125 12.68625 28.47875 11.6875 28.5 C8.625 28.4375 8.625 28.4375 7.625 27.4375 C7.58407063 25.10452567 7.58258277 22.77044775 7.625 20.4375 C6.965 20.4375 6.305 20.4375 5.625 20.4375 C5.625 23.4075 5.625 26.3775 5.625 29.4375 C1.665 29.9325 1.665 29.9325 -2.375 30.4375 C-3.99293309 27.20163382 -3.95144393 23.93502499 -3.375 20.4375 C-1.99983451 17.7214055 -0.7297313 16.53059449 1.625 14.4375 C4.4375 14.0625 4.4375 14.0625 6.625 14.4375 C6.625 13.7775 6.625 13.1175 6.625 12.4375 C5.366875 12.685 4.10875 12.9325 2.8125 13.1875 C2.10480469 13.32671875 1.39710938 13.4659375 0.66796875 13.609375 C-2.10369329 14.73287854 -2.96963084 15.79857797 -4.375 18.4375 C-4.69989829 21.68209584 -4.69989829 21.68209584 -4.5 25.125 C-4.4298084 27.22840833 -4.38087049 29.33292902 -4.375 31.4375 C-5.375 32.4375 -5.375 32.4375 -8.9375 32.5 C-10.071875 32.479375 -11.20625 32.45875 -12.375 32.4375 C-13.8724351 26.44775961 -14.51043993 19.96184654 -11.375 14.4375 C-7.75159624 9.64181855 -7.75159624 9.64181855 -4.26953125 9.125 C-2.30192823 9.125 -0.33557534 9.27134955 1.625 9.4375 C1.625 8.7775 1.625 8.1175 1.625 7.4375 C0.94953125 7.46070313 0.2740625 7.48390625 -0.421875 7.5078125 C-1.75992188 7.53488281 -1.75992188 7.53488281 -3.125 7.5625 C-4.44757813 7.59730469 -4.44757813 7.59730469 -5.796875 7.6328125 C-8.4885858 7.42889502 -10.07404974 6.80301721 -12.375 5.4375 C-12.00375 6.200625 -11.6325 6.96375 -11.25 7.75 C-10.96125 8.636875 -10.6725 9.52375 -10.375 10.4375 C-11.035 11.4275 -11.695 12.4175 -12.375 13.4375 C-15.015 13.1075 -17.655 12.7775 -20.375 12.4375 C-20.375 13.0975 -20.375 13.7575 -20.375 14.4375 C-17.9 14.9325 -17.9 14.9325 -15.375 15.4375 C-15.38660156 16.39011719 -15.39820313 17.34273437 -15.41015625 18.32421875 C-15.41917969 19.57847656 -15.42820313 20.83273438 -15.4375 22.125 C-15.44910156 23.36636719 -15.46070313 24.60773438 -15.47265625 25.88671875 C-15.38978673 28.89985454 -15.08339449 31.52025339 -14.375 34.4375 C-16.355 35.0975 -18.335 35.7575 -20.375 36.4375 C-20.375 37.0975 -20.375 37.7575 -20.375 38.4375 C-23.625 38.75 -23.625 38.75 -27.375 38.4375 C-30.37714094 35.51875187 -32.2732313 32.04053205 -34.375 28.4375 C-34.705 28.1075 -35.035 27.7775 -35.375 27.4375 C-35.75 25.125 -35.75 25.125 -35.375 22.4375 C-33.0625 20.4375 -33.0625 20.4375 -30.375 18.4375 C-29.900625 17.550625 -29.42625 16.66375 -28.9375 15.75 C-27.375 13.4375 -27.375 13.4375 -24.1875 12.625 C-23.259375 12.563125 -22.33125 12.50125 -21.375 12.4375 C-21.375 11.4475 -21.375 10.4575 -21.375 9.4375 C-27.13442358 10.68760207 -27.13442358 10.68760207 -31.375 14.4375 C-31.684375 15.0975 -31.99375 15.7575 -32.3125 16.4375 C-33.375 18.4375 -33.375 18.4375 -35.5 19.8125 C-37.68090397 21.35508832 -37.68090397 21.35508832 -37.875 24.375 C-37.26902962 28.08656856 -36.00737382 28.88738786 -33.375 31.4375 C-33.125 34.1875 -33.125 34.1875 -33.375 36.4375 C-34.695 36.4375 -36.015 36.4375 -37.375 36.4375 C-37.375 37.4275 -37.375 38.4175 -37.375 39.4375 C-35.5496875 39.375625 -35.5496875 39.375625 -33.6875 39.3125 C-30.15605873 39.29995492 -27.57496434 39.83751783 -24.375 41.4375 C-24.375 43.0875 -24.375 44.7375 -24.375 46.4375 C-29.02922701 46.80983816 -32.42695253 46.90257989 -36.6875 44.8125 C-40.85349443 41.13092353 -43.14596366 38.12327479 -43.90625 32.52734375 C-43.91674565 31.14322976 -43.90600967 29.75880638 -43.875 28.375 C-43.89046875 27.68083984 -43.9059375 26.98667969 -43.921875 26.27148438 C-43.88447128 21.34822015 -42.79245458 18.91789112 -39.375 15.4375 C-38.570625 14.6125 -37.76625 13.7875 -36.9375 12.9375 C-35.6690625 11.7 -35.6690625 11.7 -34.375 10.4375 C-33.694375 9.550625 -33.01375 8.66375 -32.3125 7.75 C-28.47176574 4.72644324 -25.19489002 4.4984432 -20.41015625 3.9921875 C-17.3172597 3.60087286 -17.3172597 3.60087286 -14.70703125 1.91015625 C-9.82853409 -0.2459908 -5.27416108 -0.03699985 0 0 Z " fill="#E8F4FA" transform="translate(244.375,180.5625)"/>
<path d="M0 0 C0.84780029 -0.0095874 1.69560059 -0.0191748 2.5690918 -0.02905273 C17.29983072 0.05002883 29.51888415 6.22610383 40.875 15.25 C41.74511719 15.91128906 42.61523438 16.57257813 43.51171875 17.25390625 C53.20955775 25.44497357 59.63957016 40.89570164 60.875 53.25 C61.49246094 53.34796875 62.10992187 53.4459375 62.74609375 53.546875 C68.95357181 54.64286808 74.25529215 56.41210362 79.875 59.25 C80.74125 59.6625 81.6075 60.075 82.5 60.5 C85.54584977 62.74431036 87.80469994 65.41941531 90.2265625 68.3125 C91.8224252 70.25755457 91.8224252 70.25755457 93.5859375 71.875 C94.875 73.25 94.875 73.25 94.875 75.25 C91.08196275 74.24806563 88.15963659 73.43975773 84.875 71.25 C84.875 70.59 84.875 69.93 84.875 69.25 C79.595 68.59 74.315 67.93 68.875 67.25 C68.875 66.59 68.875 65.93 68.875 65.25 C67.54101578 64.58300789 66.18549221 63.95748154 64.8125 63.375 C62.875 62.25 62.875 62.25 61.875 59.25 C61.00875 58.71375 60.1425 58.1775 59.25 57.625 C56.875 55.25 56.875 55.25 56.76953125 52.9921875 C57.03757653 50.71201566 57.39079207 48.49365654 57.875 46.25 C57.215 46.25 56.555 46.25 55.875 46.25 C55.71644531 45.47914063 55.55789063 44.70828125 55.39453125 43.9140625 C55.16121094 42.91117188 54.92789063 41.90828125 54.6875 40.875 C54.46707031 39.87726563 54.24664062 38.87953125 54.01953125 37.8515625 C53.0982966 35.01877637 53.0982966 35.01877637 50.26171875 33.8984375 C49.47410156 33.68445313 48.68648437 33.47046875 47.875 33.25 C47.9575 32.5075 48.04 31.765 48.125 31 C47.80246457 27.45211026 46.44779888 26.58159899 43.875 24.25 C43.875 23.59 43.875 22.93 43.875 22.25 C42.885 22.25 41.895 22.25 40.875 22.25 C40.545 21.59 40.215 20.93 39.875 20.25 C36.15598293 18.28718543 33.90284093 18.09918831 29.875 19.25 C29.545 18.26 29.215 17.27 28.875 16.25 C28.1325 16.12625 27.39 16.0025 26.625 15.875 C24.05957218 15.29194822 22.20483464 14.41491732 19.875 13.25 C18.885 13.25 17.895 13.25 16.875 13.25 C15.80636719 12.92644531 14.73773438 12.60289062 13.63671875 12.26953125 C3.32660774 9.4752021 -7.0921934 11.17347471 -17.125 14.25 C-18.41630793 14.60547241 -19.70791649 14.95985712 -21 15.3125 C-22.03125 15.621875 -23.0625 15.93125 -24.125 16.25 C-25.45724609 16.59804687 -25.45724609 16.59804687 -26.81640625 16.953125 C-31.15397915 18.65333067 -34.49499783 21.13450816 -38.1875 23.9375 C-38.88166016 24.44216797 -39.57582031 24.94683594 -40.29101562 25.46679688 C-44.89708558 28.92681714 -48.0005387 32.40799857 -51.125 37.25 C-50.465 37.25 -49.805 37.25 -49.125 37.25 C-50.95467117 41.13915611 -53.32547816 44.51914241 -55.78515625 48.03125 C-57.08340948 50.18112707 -57.61662342 51.81776697 -58.125 54.25 C-60.42008968 59.49591927 -62.80244291 62.70162861 -67.5625 65.875 C-71.03941561 67.21696743 -73.82072939 67.6328973 -77.5 68.0625 C-83.96486805 68.9313547 -87.33196852 71.02892931 -92.125 75.25 C-93.011875 75.745 -93.89875 76.24 -94.8125 76.75 C-99.53950781 79.81616723 -102.33642294 84.46958218 -105.125 89.25 C-106.115 90.24 -106.115 90.24 -107.125 91.25 C-107.81253301 92.90816784 -108.48061283 94.57459336 -109.125 96.25 C-109.62 96.745 -109.62 96.745 -110.125 97.25 C-110.49260731 99.57817964 -110.82741581 101.9118385 -111.125 104.25 C-111.455 104.25 -111.785 104.25 -112.125 104.25 C-112.2424875 100.91696997 -112.31267324 97.58448163 -112.375 94.25 C-112.40851563 93.31542969 -112.44203125 92.38085938 -112.4765625 91.41796875 C-112.56621815 85.0075901 -111.59306917 80.65227525 -108.125 75.25 C-107.59519531 74.42371094 -107.06539062 73.59742188 -106.51953125 72.74609375 C-99.4240161 63.51316416 -91.69557068 57.61081151 -80.125 55.25 C-74.47567521 54.5896567 -68.80763718 54.38465965 -63.125 54.25 C-63.03025391 53.06857422 -63.03025391 53.06857422 -62.93359375 51.86328125 C-61.18562547 36.31556342 -52.66486357 23.75539126 -41.0625 13.5625 C-28.65568383 3.84382733 -15.54540061 0.15648313 0 0 Z " fill="#85CEF1" transform="translate(248.125,142.75)"/>
<path d="M0 0 C0.556875 0.268125 1.11375 0.53625 1.6875 0.8125 C-0.14217117 4.70165611 -2.51297816 8.08164241 -4.97265625 11.59375 C-6.27090948 13.74362707 -6.80412342 15.38026697 -7.3125 17.8125 C-9.60758968 23.05841927 -11.98994291 26.26412861 -16.75 29.4375 C-20.22691561 30.77946743 -23.00822939 31.1953973 -26.6875 31.625 C-33.15236805 32.4938547 -36.51946852 34.59142931 -41.3125 38.8125 C-42.199375 39.3075 -43.08625 39.8025 -44 40.3125 C-48.72700781 43.37866723 -51.52392294 48.03208218 -54.3125 52.8125 C-54.9725 53.4725 -55.6325 54.1325 -56.3125 54.8125 C-57.00003301 56.47066784 -57.66811283 58.13709336 -58.3125 59.8125 C-58.8075 60.3075 -58.8075 60.3075 -59.3125 60.8125 C-59.68010731 63.14067964 -60.01491581 65.4743385 -60.3125 67.8125 C-60.6425 67.8125 -60.9725 67.8125 -61.3125 67.8125 C-61.4299875 64.47946997 -61.50017324 61.14698163 -61.5625 57.8125 C-61.59601563 56.87792969 -61.62953125 55.94335938 -61.6640625 54.98046875 C-61.75371815 48.5700901 -60.78056917 44.21477525 -57.3125 38.8125 C-56.78269531 37.98621094 -56.25289062 37.15992188 -55.70703125 36.30859375 C-48.6115161 27.07566416 -40.88307068 21.17331151 -29.3125 18.8125 C-23.66317521 18.1521567 -17.99513718 17.94715965 -12.3125 17.8125 C-11.35847385 15.474121 -10.42326867 13.15056853 -9.63671875 10.75 C-8.10144527 6.07824757 -5.83558149 -0.47315526 0 0 Z " fill="#58AFE7" transform="translate(197.3125,179.1875)"/>
<path d="M0 0 C4.91298636 2.50662569 7.05006076 5.21423964 9.43359375 10 C10.1048623 12.3702724 9.78641068 13.6973073 9 16 C9 15.34 9 14.68 9 14 C8.34 14 7.68 14 7 14 C7 15.98 7 17.96 7 20 C4.23434618 20.92188461 2.61716298 21.11785222 -0.23046875 21.09765625 C-1.03291016 21.09443359 -1.83535156 21.09121094 -2.66210938 21.08789062 C-3.91217773 21.07532227 -3.91217773 21.07532227 -5.1875 21.0625 C-6.03248047 21.05798828 -6.87746094 21.05347656 -7.74804688 21.04882812 C-9.83206155 21.03705403 -11.91603977 21.0191189 -14 21 C-14.10957031 21.64066406 -14.21914062 22.28132813 -14.33203125 22.94140625 C-16.78546713 36.3255971 -16.78546713 36.3255971 -21.5625 39.9375 C-24 41 -24 41 -26 41 C-24 34.33333333 -22 27.66666667 -20 21 C-34.85 21 -49.7 21 -65 21 C-65 20.67 -65 20.34 -65 20 C-42.23 19.505 -42.23 19.505 -19 19 C-17.02 13.555 -17.02 13.555 -15 8 C-7.1684935 -2.16721897 -7.1684935 -2.16721897 0 0 Z " fill="#CFE9F8" transform="translate(234,258)"/>
<path d="M0 0 C3.16371237 1.07853831 4.2577399 0.72623924 7.4375 -0.0625 C12.95232758 -1.37278986 17.35274494 -0.55535778 22.75 0.9375 C22.75 1.9275 22.75 2.9175 22.75 3.9375 C23.94625 4.370625 25.1425 4.80375 26.375 5.25 C36.28443551 9.02753304 36.28443551 9.02753304 38.125 12.625 C38.434375 13.7696875 38.434375 13.7696875 38.75 14.9375 C39.74 14.6075 40.73 14.2775 41.75 13.9375 C41.976875 14.824375 42.20375 15.71125 42.4375 16.625 C43.5231409 20.06193365 43.5231409 20.06193365 46.25 22.25 C51.07320874 27.4349494 50.96756824 34.27779736 51.015625 41.08984375 C50.75 42.9375 50.75 42.9375 48.75 44.9375 C48.75 40.3175 48.75 35.6975 48.75 30.9375 C47.76 30.9375 46.77 30.9375 45.75 30.9375 C45.75 29.9475 45.75 28.9575 45.75 27.9375 C45.09 27.9375 44.43 27.9375 43.75 27.9375 C43.75 28.5975 43.75 29.2575 43.75 29.9375 C43.09 29.9375 42.43 29.9375 41.75 29.9375 C41.75 30.5975 41.75 31.2575 41.75 31.9375 C40.76 31.9375 39.77 31.9375 38.75 31.9375 C38.75 35.2375 38.75 38.5375 38.75 41.9375 C40.07 41.9375 41.39 41.9375 42.75 41.9375 C43.08 40.9475 43.41 39.9575 43.75 38.9375 C44.41 38.9375 45.07 38.9375 45.75 38.9375 C45.75 40.5875 45.75 42.2375 45.75 43.9375 C39.125 45.1875 39.125 45.1875 35.75 42.9375 C35.33096988 39.87196384 35.31026046 36.87712395 35.25390625 33.78515625 C35.01281836 30.85953741 35.01281836 30.85953741 32.94921875 29.1015625 C29.95278792 27.51552984 27.09730014 27.25935578 23.75 26.9375 C23.75 25.9475 23.75 24.9575 23.75 23.9375 C29.57566508 23.47144679 32.0465699 24.6237197 36.75 27.9375 C37.74 27.6075 38.73 27.2775 39.75 26.9375 C39.75 26.2775 39.75 25.6175 39.75 24.9375 C38.265 24.4425 38.265 24.4425 36.75 23.9375 C35.76 22.4525 35.76 22.4525 34.75 20.9375 C32.18717258 20.20784634 32.18717258 20.20784634 29.75 19.9375 C29.75 19.2775 29.75 18.6175 29.75 17.9375 C28.43 17.2775 27.11 16.6175 25.75 15.9375 C25.75 15.2775 25.75 14.6175 25.75 13.9375 C29.44900008 14.82526002 33.09550461 15.88331864 36.75 16.9375 C35.50023244 13.28433329 35.07901247 12.15684164 31.75 9.9375 C30.63625 9.81375 29.5225 9.69 28.375 9.5625 C24.27731147 8.85600198 22.83321794 7.61503137 19.75 4.9375 C14.3187066 2.33489793 9.22511794 2.60646515 3.3125 2.625 C2.28833984 2.60888672 1.26417969 2.59277344 0.20898438 2.57617188 C-5.5178067 2.57246521 -9.19601339 3.03351065 -14.25 5.9375 C-16.20000424 6.2131006 -18.16064756 6.42181693 -20.125 6.5625 C-26.23984732 7.4490392 -28.7626 9.71361052 -32.43359375 14.55078125 C-34.25 16.9375 -34.25 16.9375 -36.9453125 19.23046875 C-39.93818311 22.74582355 -39.8945101 25.53752061 -39.6875 29.9375 C-39.68169922 30.63617188 -39.67589844 31.33484375 -39.66992188 32.0546875 C-39.57485707 36.08543512 -39.01468325 39.30891437 -37.25 42.9375 C-38.57 42.6075 -39.89 42.2775 -41.25 41.9375 C-43.12070316 32.62715425 -43.76906515 25.69536321 -39.9375 16.9375 C-38.25 14.9375 -38.25 14.9375 -35.5625 14.125 C-34.799375 14.063125 -34.03625 14.00125 -33.25 13.9375 C-32.92 12.2875 -32.59 10.6375 -32.25 8.9375 C-31.59 8.9375 -30.93 8.9375 -30.25 8.9375 C-30.25 8.2775 -30.25 7.6175 -30.25 6.9375 C-24.70108785 4.11900494 -20.508654 2.4048486 -14.25 2.9375 C-14.25 2.2775 -14.25 1.6175 -14.25 0.9375 C-12.950625 0.7209375 -12.950625 0.7209375 -11.625 0.5 C-9.46882956 0.14063826 -7.32032998 -0.27120143 -5.1875 -0.75 C-2.25 -1.0625 -2.25 -1.0625 0 0 Z " fill="#66B3E1" transform="translate(241.25,179.0625)"/>
<path d="M0 0 C2.83398763 0.09606738 5.02345099 0.27250432 7.6875 1.125 C8.14513495 6.84543683 7.40403644 9.72383843 3.6875 14.125 C0.3967334 16.84345937 -1.40890864 18.05806731 -5.6875 18.375 C-6.55375 18.2925 -7.42 18.21 -8.3125 18.125 C-7.9825 19.176875 -7.6525 20.22875 -7.3125 21.3125 C-6.47283218 24.51373357 -6.11499096 26.8661008 -6.3125 30.125 C-8.2925 30.125 -10.2725 30.125 -12.3125 30.125 C-13.31734204 28.16914675 -14.31623805 26.21023763 -15.3125 24.25 C-15.869375 23.15945312 -16.42625 22.06890625 -17 20.9453125 C-18.3125 18.125 -18.3125 18.125 -18.3125 16.125 C-19.2096875 15.9703125 -19.2096875 15.9703125 -20.125 15.8125 C-23.83695211 14.64588648 -25.19329612 12.30380582 -27.3125 9.125 C-27.3125 8.135 -27.3125 7.145 -27.3125 6.125 C-22.65413348 4.57221116 -17.86109931 4.7846122 -12.9765625 4.6015625 C-7.77234957 3.92468193 -4.90788569 0.18520323 0 0 Z " fill="#DEECF6" transform="translate(277.3125,230.875)"/>
<path d="M0 0 C4.62 0.66 9.24 1.32 14 2 C14 2.66 14 3.32 14 4 C12.1746875 4.0928125 12.1746875 4.0928125 10.3125 4.1875 C6.84821114 4.61746493 5.95993004 5.03154444 3.0625 7.3125 C-0.30374395 11.69881787 -0.11704283 15.29571718 -0.0625 20.75 C-0.05347656 21.92046875 -0.04445312 23.0909375 -0.03515625 24.296875 C-0.02355469 25.18890625 -0.01195312 26.0809375 0 27 C3.465 26.505 3.465 26.505 7 26 C6.95359375 25.11957031 6.9071875 24.23914063 6.859375 23.33203125 C6.80523437 21.58986328 6.80523437 21.58986328 6.75 19.8125 C6.70359375 18.66394531 6.6571875 17.51539063 6.609375 16.33203125 C7.0750057 12.36020138 8.22370387 10.81228515 11 8 C13.70879335 6.64560332 16.00933268 6.93498549 19 7 C19 7.66 19 8.32 19 9 C18.071875 9.2475 17.14375 9.495 16.1875 9.75 C12.69571549 11.11932726 11.84701586 11.83368709 10 15 C9.63965477 17.58881802 9.63965477 17.58881802 9.8125 20.25 C9.83957031 21.14203125 9.86664063 22.0340625 9.89453125 22.953125 C9.94673828 23.96632812 9.94673828 23.96632812 10 25 C13.96 24.505 13.96 24.505 18 24 C18 21.03 18 18.06 18 15 C18.66 15 19.32 15 20 15 C20.495 18.465 20.495 18.465 21 22 C22.98 22.33 24.96 22.66 27 23 C27 23.99 27 24.98 27 26 C26.01386719 26.14695313 26.01386719 26.14695313 25.0078125 26.296875 C18.43001722 27.3307832 11.93496115 28.61687698 5.4375 30.0625 C4.65197754 30.2368457 3.86645508 30.41119141 3.05712891 30.59082031 C-2.69609413 31.43504379 -2.69609413 31.43504379 -7.125 34.5625 C-8.36492259 38.01657007 -8.63491457 41.34914566 -9 45 C-9.33 45 -9.66 45 -10 45 C-10.144375 44.2575 -10.28875 43.515 -10.4375 42.75 C-10.90031411 40.48735322 -11.43986518 38.2405393 -12 36 C-16.29 35.34 -20.58 34.68 -25 34 C-25 33.01 -25 32.02 -25 31 C-23.68 31 -22.36 31 -21 31 C-21 29.35 -21 27.7 -21 26 C-21.639375 25.71125 -22.27875 25.4225 -22.9375 25.125 C-25 24 -25 24 -26 22 C-26.375 19.125 -26.375 19.125 -26 16 C-23.6875 13.9375 -23.6875 13.9375 -21 12 C-19.98812105 10.34051852 -18.9873454 8.67419438 -18 7 C-15.6256736 4.70481781 -14.57225967 4.03901771 -11.25 3.8125 C-10.13625 3.9053125 -10.13625 3.9053125 -9 4 C-9 4.99 -9 5.98 -9 7 C-10.6396875 7.5878125 -10.6396875 7.5878125 -12.3125 8.1875 C-15.96461554 9.73064741 -17.17893178 11.44891697 -19 15 C-19.99 15.66 -20.98 16.32 -22 17 C-22.50014953 19.45741537 -22.50014953 19.45741537 -22 22 C-20.66710346 23.50014391 -20.66710346 23.50014391 -19 25 C-17.96838392 26.98387708 -16.96476382 28.98276656 -16 31 C-14.03177114 32.96822886 -10.65191291 32.66248381 -8 33 C-8 32.34 -8 31.68 -8 31 C-6.02 30.34 -4.04 29.68 -2 29 C-2.32742187 28.32582031 -2.65484375 27.65164062 -2.9921875 26.95703125 C-4.20960865 23.38498546 -4.195381 20.45288353 -4.125 16.6875 C-4.10695312 15.43324219 -4.08890625 14.17898437 -4.0703125 12.88671875 C-4.04710937 11.93410156 -4.02390625 10.98148438 -4 10 C-5.32 9.67 -6.64 9.34 -8 9 C-8 8.34 -8 7.68 -8 7 C-5.36 7.33 -2.72 7.66 0 8 C0.79953138 4.71303767 1.09658936 3.28976808 0 0 Z " fill="#6DA7CF" transform="translate(232,186)"/>
<path d="M0 0 C0.84780029 -0.0095874 1.69560059 -0.0191748 2.5690918 -0.02905273 C16.95148929 0.04815877 30.04698881 5.90782225 40.875 15.25 C42.68359375 17.49609375 42.68359375 17.49609375 43.875 19.25 C41.565 18.59 39.255 17.93 36.875 17.25 C36.875 16.59 36.875 15.93 36.875 15.25 C32.36355949 13.41414008 27.79341317 11.7785822 23.203125 10.15234375 C20.875 9.25 20.875 9.25 19.875 8.25 C4.50334029 6.62453729 -10.73736962 7.40601636 -26.125 8.25 C-26.125 8.91 -26.125 9.57 -26.125 10.25 C-28.55698892 12.58065605 -30.98848647 13.58924833 -34.125 14.625 C-38.03467869 15.98394036 -39.72820554 17.83917711 -42.125 21.25 C-42.785 21.25 -43.445 21.25 -44.125 21.25 C-44.33125 21.86875 -44.5375 22.4875 -44.75 23.125 C-46.67275888 26.09653645 -48.79094527 26.38024659 -52.125 27.25 C-47.1229631 15.42700369 -34.977828 8.46330033 -23.69921875 3.66015625 C-15.72300993 0.51325856 -8.5068765 0.08563193 0 0 Z " fill="#AADFF7" transform="translate(248.125,142.75)"/>
<path d="M0 0 C0.66 0 1.32 0 2 0 C1.979375 1.051875 1.95875 2.10375 1.9375 3.1875 C1.98896802 6.32704904 2.26517187 8.96883396 3 12 C0.69 12 -1.62 12 -4 12 C-4 13.98 -4 15.96 -4 18 C-1.36 18.33 1.28 18.66 4 19 C4 19.33 4 19.66 4 20 C0.41802596 20.25528048 -3.16527379 20.47465688 -6.75 20.6875 C-7.76578125 20.76033203 -8.7815625 20.83316406 -9.828125 20.90820312 C-10.8078125 20.96298828 -11.7875 21.01777344 -12.796875 21.07421875 C-13.69760742 21.13182373 -14.59833984 21.18942871 -15.52636719 21.2487793 C-18.52335978 20.94736443 -19.72498339 19.90227897 -22 18 C-24.22077744 17.61353939 -24.22077744 17.61353939 -26.5 17.625 C-30.24329132 17.34749076 -30.74813137 17.25186863 -33.5625 14.4375 C-34.2740625 13.2309375 -34.2740625 13.2309375 -35 12 C-28.68337502 6.54173172 -21.59924244 7.19099197 -13.58984375 6.8671875 C-12.02556641 6.77824219 -12.02556641 6.77824219 -10.4296875 6.6875 C-9.01018799 6.63142578 -9.01018799 6.63142578 -7.56201172 6.57421875 C-4.3113167 5.84564674 -3.0972216 4.53401896 -1 2 C-0.67 1.34 -0.34 0.68 0 0 Z " fill="#D7EBF8" transform="translate(265,213)"/>
<path d="M0 0 C2.9397999 0.32664443 4.72346497 0.79666542 7.125 2.5625 C11.25850961 7.93606249 12.41678934 13.33137058 12 20 C12.66 20 13.32 20 14 20 C14.26554688 20.68707031 14.53109375 21.37414062 14.8046875 22.08203125 C15.15789062 22.98308594 15.51109375 23.88414062 15.875 24.8125 C16.22304687 25.70582031 16.57109375 26.59914063 16.9296875 27.51953125 C17.98832155 30.17711591 17.98832155 30.17711591 20 33 C21.92309422 32.96044102 21.92309422 32.96044102 24 32 C25.93065633 28.78223945 27.29066469 25.68854359 28 22 C29.65 22.33 31.3 22.66 33 23 C33.9325405 26.04558025 34.25805233 27.46187723 32.85546875 30.38671875 C32.30503906 31.14597656 31.75460937 31.90523438 31.1875 32.6875 C30.64480469 33.45449219 30.10210937 34.22148437 29.54296875 35.01171875 C26.53234618 38.89122986 26.53234618 38.89122986 24.01171875 39.40625 C22.86123047 39.45265625 22.86123047 39.45265625 21.6875 39.5 C20.92824219 39.5515625 20.16898438 39.603125 19.38671875 39.65625 C15.70893787 38.64501074 13.96379981 36.0934787 12 33 C10.77141806 30.49981055 9.83692065 27.94669885 8.9375 25.3125 C8.68709961 24.61495605 8.43669922 23.91741211 8.17871094 23.19873047 C7.44028603 21.13654383 6.7179518 19.06939049 6 17 C5.25394188 14.87361286 4.50454671 12.74838981 3.75 10.625 C3.45609375 9.77164062 3.1621875 8.91828125 2.859375 8.0390625 C2.07769549 5.82637572 2.07769549 5.82637572 0 4 C0 2.68 0 1.36 0 0 Z " fill="#E2EBF3" transform="translate(228,292)"/>
<path d="M0 0 C0 0.66 0 1.32 0 2 C2.31 2 4.62 2 7 2 C7 2.66 7 3.32 7 4 C2.33999152 5.55333616 -2.5500827 5.34203631 -7.43359375 5.5234375 C-11.06947322 6.00928339 -12.32831803 6.63780365 -15 9 C-15.66 9 -16.32 9 -17 9 C-15.92598892 11.91517292 -15.22189824 13.77810176 -13 16 C-10.89659544 16.38639454 -10.89659544 16.38639454 -8.5625 16.5 C-5.06190316 16.73068183 -4.05774155 16.96150563 -1 19 C-1 19.99 -1 20.98 -1 22 C-6.39699384 23.79899795 -13.01185953 24.30952349 -18.30859375 21.98828125 C-21.28639785 19.92672457 -22.8443105 18.46706849 -24 15 C-24.67883212 7.98540146 -24.67883212 7.98540146 -22.0625 4.1875 C-14.88050192 -0.94249863 -8.56471226 -1.48407331 0 0 Z " fill="#EBF3F7" transform="translate(247,216)"/>
<path d="M0 0 C3.14839906 -0.34982212 4.62023779 -0.24633224 7.3125 1.5 C9.67131793 4.99454508 9.73051501 7.97514327 9 12 C7.87844758 15.11810911 6.52452681 18.05984116 5 21 C5.66 21 6.32 21 7 21 C7 21.66 7 22.32 7 23 C5.00045254 23.04254356 2.99958364 23.04080783 1 23 C0 22 0 22 -0.0625 18.4375 C-0.041875 17.303125 -0.02125 16.16875 0 15 C-0.66 15 -1.32 15 -2 15 C-2 17.97 -2 20.94 -2 24 C-5.96 24.495 -5.96 24.495 -10 25 C-11.61793309 21.76413382 -11.57644393 18.49752499 -11 15 C-9.62483451 12.2839055 -8.3547313 11.09309449 -6 9 C-3.1875 8.625 -3.1875 8.625 -1 9 C-0.67 6.03 -0.34 3.06 0 0 Z " fill="#DFF0F8" transform="translate(252,186)"/>
<path d="M0 0 C1.32 0.33 2.64 0.66 4 1 C4.92844389 5.33273814 4.92844389 8.66726186 4 13 C4.66 13 5.32 13 6 13 C6.45375 13.515625 6.9075 14.03125 7.375 14.5625 C7.91125 15.036875 8.4475 15.51125 9 16 C11.02919843 15.74276031 11.02919843 15.74276031 13 15 C16 15 16 15 19 17 C22.37150059 17.06079639 22.37150059 17.06079639 26.0625 16.6875 C27.31160156 16.58824219 28.56070312 16.48898437 29.84765625 16.38671875 C32.89645842 16.19134459 32.89645842 16.19134459 35 15 C35 15.66 35 16.32 35 17 C40.31566858 16.53301603 45.63043092 16.05724225 50.9375 15.5 C51.62714844 15.4278125 52.31679688 15.355625 53.02734375 15.28125 C55.03231152 15.0537526 55.03231152 15.0537526 57.00390625 14.34375 C59.63252653 13.89107175 60.66570191 14.78686572 63 16 C69.77856119 16.79930967 74.95122685 16.02438657 81 13 C81.99 13 82.98 13 84 13 C84 11.68 84 10.36 84 9 C84.7425 8.855625 85.485 8.71125 86.25 8.5625 C88.52027739 8.09812508 90.75759479 7.58136431 93 7 C91.83895674 10.48312977 91.03014115 10.99723339 88.0625 13 C87.35222656 13.495 86.64195312 13.99 85.91015625 14.5 C76.54724179 19.32598544 67.23809754 19.40470967 56.9296875 19.29296875 C55.39698709 19.28736188 53.86428124 19.28309695 52.33157349 19.28010559 C48.33008543 19.26874251 44.32893275 19.23935082 40.32757568 19.20599365 C36.23145075 19.17510681 32.13527074 19.16156079 28.0390625 19.14648438 C20.02588909 19.11447128 12.01298646 19.06338069 4 19 C3.18395001 17.0848421 2.37229368 15.16781166 1.5625 13.25 C1.11003906 12.18265625 0.65757812 11.1153125 0.19140625 10.015625 C-0.73979553 7.6586159 -1.4784072 5.47007165 -2 3 C-1.34 3 -0.68 3 0 3 C0 2.01 0 1.02 0 0 Z " fill="#3F7CC3" transform="translate(242,259)"/>
<path d="M0 0 C0.99 0 1.98 0 3 0 C3.33 0.99 3.66 1.98 4 3 C4.61746094 3.09796875 5.23492187 3.1959375 5.87109375 3.296875 C12.07857181 4.39286808 17.38029215 6.16210362 23 9 C23.86625 9.4125 24.7325 9.825 25.625 10.25 C28.67084977 12.49431036 30.92969994 15.16941531 33.3515625 18.0625 C34.9474252 20.00755457 34.9474252 20.00755457 36.7109375 21.625 C38 23 38 23 38 25 C34.20696275 23.99806563 31.28463659 23.18975773 28 21 C28 20.34 28 19.68 28 19 C22.72 18.34 17.44 17.68 12 17 C12 16.34 12 15.68 12 15 C10.66601578 14.33300789 9.31049221 13.70748154 7.9375 13.125 C6 12 6 12 5 9 C4.154375 8.38125 3.30875 7.7625 2.4375 7.125 C0 5 0 5 -0.3125 2.25 C-0.209375 1.5075 -0.10625 0.765 0 0 Z " fill="#72BBE9" transform="translate(305,193)"/>
<path d="M0 0 C-6.15739906 4.1049327 -13.09674593 5.99238015 -20.375 7 C-25.00470708 7.69983944 -27.82721917 8.33147217 -31 12 C-31.96008209 13.72814776 -32.91820804 15.45788889 -33.83203125 17.2109375 C-35.17372532 19.26610768 -36.63560035 20.48918141 -38.5625 22 C-41.18036272 24.07201049 -42.51038645 25.61965407 -43.6875 28.75 C-45 32 -45 32 -47.1875 33.4375 C-47.785625 33.623125 -48.38375 33.80875 -49 34 C-49.83323361 25.66766387 -45.01923552 19.37798008 -39.96875 13.171875 C-28.70506506 0.74606383 -15.8730843 -0.67705099 0 0 Z " fill="#7EC0EB" transform="translate(185,198)"/>
<path d="M0 0 C1.4540625 0.0309375 1.4540625 0.0309375 2.9375 0.0625 C2.9375 2.7025 2.9375 5.3425 2.9375 8.0625 C3.5975 8.0625 4.2575 8.0625 4.9375 8.0625 C3.73368552 10.55611571 2.48321278 12.74393083 0.9375 15.0625 C1.9275 14.7325 2.9175 14.4025 3.9375 14.0625 C3.30679138 17.76899314 1.66081344 20.20868878 -0.5 23.25 C-1.11746094 24.13042969 -1.73492187 25.01085937 -2.37109375 25.91796875 C-4.0625 28.0625 -4.0625 28.0625 -6.0625 29.0625 C-5.753125 28.32 -5.44375 27.5775 -5.125 26.8125 C-4.2530075 24.55557824 -3.58582993 22.4174847 -3.0625 20.0625 C-3.475 20.84625 -3.8875 21.63 -4.3125 22.4375 C-6.1017777 25.12141656 -7.11238139 25.94348949 -10.0625 27.0625 C-8.68916848 23.23777171 -6.92122294 20.17821157 -4.5625 16.875 C-3.9540625 16.01519531 -3.345625 15.15539062 -2.71875 14.26953125 C-1.0625 12.0625 -1.0625 12.0625 0.9375 10.0625 C-0.7125 9.7325 -2.3625 9.4025 -4.0625 9.0625 C-4.16015625 2.91015625 -4.16015625 2.91015625 -4.0625 1.0625 C-3.0625 0.0625 -3.0625 0.0625 0 0 Z M-9.0625 11.0625 C-7.4125 11.3925 -5.7625 11.7225 -4.0625 12.0625 C-4.875 14.5 -4.875 14.5 -6.0625 17.0625 C-7.0525 17.3925 -8.0425 17.7225 -9.0625 18.0625 C-9.09988281 18.83335937 -9.13726562 19.60421875 -9.17578125 20.3984375 C-9.24152344 21.40132813 -9.30726563 22.40421875 -9.375 23.4375 C-9.43300781 24.43523437 -9.49101562 25.43296875 -9.55078125 26.4609375 C-9.80408203 27.74871094 -9.80408203 27.74871094 -10.0625 29.0625 C-13.0625 31.0625 -13.0625 31.0625 -15.75 30.6875 C-16.8946875 30.378125 -16.8946875 30.378125 -18.0625 30.0625 C-17.58662884 24.03479862 -14.86527043 19.29571711 -12.0625 14.0625 C-11.4025 14.0625 -10.7425 14.0625 -10.0625 14.0625 C-9.7325 13.0725 -9.4025 12.0825 -9.0625 11.0625 Z " fill="#F1F6FA" transform="translate(277.0625,280.9375)"/>
<path d="M0 0 C2.28728141 2.05855327 3.82406686 3.50990055 4.875 6.4375 C6.19244058 9.43833688 8.00685917 10.64231945 10.53515625 12.6328125 C13.67434973 15.56272641 14.81292638 19.19162166 15.24609375 23.37890625 C15.30805721 25.64968491 15.35207151 27.75497259 15 30 C14.34 30.66 13.68 31.32 13 32 C13 27.38 13 22.76 13 18 C12.01 18 11.02 18 10 18 C10 17.01 10 16.02 10 15 C9.34 15 8.68 15 8 15 C8 15.66 8 16.32 8 17 C7.34 17 6.68 17 6 17 C6 17.66 6 18.32 6 19 C5.01 19 4.02 19 3 19 C3 22.3 3 25.6 3 29 C4.32 29 5.64 29 7 29 C7.33 28.01 7.66 27.02 8 26 C8.66 26 9.32 26 10 26 C10 27.65 10 29.3 10 31 C3.375 32.25 3.375 32.25 0 30 C-0.41903012 26.93446384 -0.43973954 23.93962395 -0.49609375 20.84765625 C-0.73718164 17.92203741 -0.73718164 17.92203741 -2.80078125 16.1640625 C-5.79721208 14.57802984 -8.65269986 14.32185578 -12 14 C-12 13.01 -12 12.02 -12 11 C-6.17433492 10.53394679 -3.7034301 11.6862197 1 15 C1.99 14.67 2.98 14.34 4 14 C4 13.34 4 12.68 4 12 C3.01 11.67 2.02 11.34 1 11 C0.34 10.01 -0.32 9.02 -1 8 C-3.56282742 7.27034634 -3.56282742 7.27034634 -6 7 C-6 6.34 -6 5.68 -6 5 C-7.32 4.34 -8.64 3.68 -10 3 C-10 2.34 -10 1.68 -10 1 C-6.30099992 1.88776002 -2.65449539 2.94581864 1 4 C0.67 2.68 0.34 1.36 0 0 Z " fill="#D0ECF9" transform="translate(277,192)"/>
<path d="M0 0 C3.72623902 1.11787171 5.49046188 3.58722179 7.5 6.75 C9.26056909 10.07474004 10.5 12.92097269 10.5 16.75 C3.57 16.75 -3.36 16.75 -10.5 16.75 C-6.01648352 1.80494505 -6.01648352 1.80494505 0 0 Z " fill="#3270C0" transform="translate(230.5,261.25)"/>
<path d="M0 0 C0 0.66 0 1.32 0 2 C1.6396875 2.2165625 1.6396875 2.2165625 3.3125 2.4375 C7 3 7 3 10 4 C10 4.66 10 5.32 10 6 C10.66 6 11.32 6 12 6 C12 6.66 12 7.32 12 8 C12.66 8 13.32 8 14 8 C14 8.66 14 9.32 14 10 C12.68 9.67 11.36 9.34 10 9 C10 8.34 10 7.68 10 7 C9.2575 6.87625 8.515 6.7525 7.75 6.625 C5.18457218 6.04194822 3.32983464 5.16491732 1 4 C0.01 4 -0.98 4 -2 4 C-3.06863281 3.67644531 -4.13726562 3.35289062 -5.23828125 3.01953125 C-15.54839226 0.2252021 -25.9671934 1.92347471 -36 5 C-37.29130793 5.35547241 -38.58291649 5.70985712 -39.875 6.0625 C-40.90625 6.371875 -41.9375 6.68125 -43 7 C-43.89203125 7.23332031 -44.7840625 7.46664062 -45.703125 7.70703125 C-49.97764965 9.38341473 -53.24530018 11.85348502 -56.875 14.625 C-57.90753906 15.3984375 -57.90753906 15.3984375 -58.9609375 16.1875 C-60.64595239 17.45126117 -62.32372632 18.7246671 -64 20 C-64 16.83066616 -63.67883594 15.62152615 -62 13 C-60.23046875 11.91015625 -60.23046875 11.91015625 -58.1875 11.0625 C-55.26370939 9.73113106 -53.93079419 8.92518291 -51.6875 6.5 C-38.97953814 -5.32135987 -15.69431034 -0.80902289 0 0 Z " fill="#79C9F1" transform="translate(267,152)"/>
<path d="M0 0 C0.556875 0.268125 1.11375 0.53625 1.6875 0.8125 C0.26645328 3.81097658 -1.38297901 6.50885213 -3.25 9.25 C-4.95402799 11.76250842 -6.55478215 14.23649377 -8.0625 16.875 C-8.68125 17.8340625 -8.68125 17.8340625 -9.3125 18.8125 C-9.9725 18.8125 -10.6325 18.8125 -11.3125 18.8125 C-11.4053125 19.9571875 -11.4053125 19.9571875 -11.5 21.125 C-12.3125 23.8125 -12.3125 23.8125 -14.31640625 25.4296875 C-18.25378979 27.24694144 -21.77833734 27.3675787 -26.0625 27.625 C-33.46940051 28.22644689 -38.71009874 29.60324971 -44.3125 34.8125 C-44.9725 34.4825 -45.6325 34.1525 -46.3125 33.8125 C-44.9375 31.8125 -44.9375 31.8125 -43.3125 29.8125 C-42.6525 29.8125 -41.9925 29.8125 -41.3125 29.8125 C-40.9825 28.8225 -40.6525 27.8325 -40.3125 26.8125 C-37.30734397 25.12209973 -34.56014025 24.70344296 -31.1875 24.4375 C-26.34017931 24.00644631 -22.19223872 22.45239541 -17.6953125 20.65234375 C-15.3125 19.8125 -15.3125 19.8125 -12.3125 19.8125 C-12.044375 18.8225 -11.77625 17.8325 -11.5 16.8125 C-6.44681988 -0.52271513 -6.44681988 -0.52271513 0 0 Z " fill="#66B7E9" transform="translate(197.3125,179.1875)"/>
<path d="M0 0 C0.33 0 0.66 0 1 0 C2.76178211 7.48757395 1.17410987 14.03220926 -2 21 C-4.48426382 23.39206434 -6.61959022 24.3963554 -10 25 C-8 18.33333333 -6 11.66666667 -4 5 C-18.85 5 -33.7 5 -49 5 C-49 4.67 -49 4.34 -49 4 C-48.1455555 3.99120064 -48.1455555 3.99120064 -47.27384949 3.98222351 C-41.35272804 3.91836036 -35.43215371 3.83395962 -29.51147461 3.73754883 C-27.30093594 3.70426492 -25.09031157 3.67624388 -22.87963867 3.65356445 C-19.70454334 3.62008241 -16.53023583 3.56776948 -13.35546875 3.51171875 C-12.36475876 3.50532883 -11.37404877 3.4989389 -10.35331726 3.49235535 C-9.43258926 3.47256119 -8.51186127 3.45276703 -7.56323242 3.43237305 C-6.7527092 3.42126999 -5.94218597 3.41016693 -5.10710144 3.39872742 C-2.52969078 2.91100325 -1.68730948 1.94580088 0 0 Z " fill="#E9EFF5" transform="translate(218,274)"/>
<path d="M0 0 C0.84699463 -0.00918457 1.69398926 -0.01836914 2.56665039 -0.02783203 C9.83877161 0.00762443 16.16651193 1.31503647 22.875 4.25 C15.53728395 6.37053262 7.67950026 5.23287564 0.1875 4.5625 C-7.1197473 3.96797934 -13.56898194 4.96056078 -20.69921875 6.55859375 C-23.64145253 7.15240832 -26.14258037 7.39256308 -29.125 7.25 C-20.7290411 0.40884831 -10.40233206 0.06277351 0 0 Z " fill="#B4E5F8" transform="translate(248.125,142.75)"/>
<path d="M0 0 C3.53571429 0.53571429 3.53571429 0.53571429 5 2 C5.24966567 5.1382345 5.18521791 8.29049613 5.1875 11.4375 C5.19974609 12.32244141 5.21199219 13.20738281 5.22460938 14.11914062 C5.22654297 14.96541016 5.22847656 15.81167969 5.23046875 16.68359375 C5.23457764 17.46275146 5.23868652 18.24190918 5.24291992 19.04467773 C5 21 5 21 3 23 C-0.53571429 22.46428571 -0.53571429 22.46428571 -2 21 C-2.24966567 17.8617655 -2.18521791 14.70950387 -2.1875 11.5625 C-2.19974609 10.67755859 -2.21199219 9.79261719 -2.22460938 8.88085938 C-2.22654297 8.03458984 -2.22847656 7.18832031 -2.23046875 6.31640625 C-2.23457764 5.53724854 -2.23868652 4.75809082 -2.24291992 3.95532227 C-2 2 -2 2 0 0 Z " fill="#EDF4FA" transform="translate(225,303)"/>
<path d="M0 0 C0.79921875 0.00902344 1.5984375 0.01804688 2.421875 0.02734375 C3.02515625 0.03894531 3.6284375 0.05054688 4.25 0.0625 C2.94892884 8.07435922 2.94892884 8.07435922 0.4375 11.625 C-2.17453617 13.34148091 -3.68276942 13.4033034 -6.75 13.0625 C-6.75 11.7425 -6.75 10.4225 -6.75 9.0625 C-7.41 9.0625 -8.07 9.0625 -8.75 9.0625 C-9.77196992 8.08496356 -10.76979625 7.0819119 -11.75 6.0625 C-12.74 5.4025 -13.73 4.7425 -14.75 4.0625 C-9.59291269 1.36674981 -5.81091142 -0.08545458 0 0 Z " fill="#E1EEF6" transform="translate(279.75,232.9375)"/>
<path d="M0 0 C2.31 0 4.62 0 7 0 C8.41880263 2.83760526 8.1320472 5.27682975 8.125 8.4375 C8.12757813 9.59121094 8.13015625 10.74492187 8.1328125 11.93359375 C8 15 8 15 7 18 C5.02 18.33 3.04 18.66 1 19 C-0.65497356 15.69005287 -0.10084335 12.00877 -0.0625 8.375 C-0.05798828 7.57320313 -0.05347656 6.77140625 -0.04882812 5.9453125 C-0.03703168 3.96350994 -0.01909605 1.98174567 0 0 Z " fill="#F0F4F9" transform="translate(198,281)"/>
<path d="M0 0 C0.66 0 1.32 0 2 0 C2.336611 1.77021322 2.66917293 3.54119674 3 5.3125 C3.185625 6.29863281 3.37125 7.28476563 3.5625 8.30078125 C4 11 4 11 4 14 C4.33 14 4.66 14 5 14 C6.66666667 14 8.33333333 14 10 14 C10.33 13.01 10.66 12.02 11 11 C11 12.32 11 13.64 11 15 C9.02 15.66 7.04 16.32 5 17 C5 17.66 5 18.32 5 19 C1.75 19.3125 1.75 19.3125 -2 19 C-4.5 16.6875 -4.5 16.6875 -6 14 C-5.67 13.01 -5.34 12.02 -5 11 C-4.01 11.33 -3.02 11.66 -2 12 C-1.67 10.68 -1.34 9.36 -1 8 C-1.99 8 -2.98 8 -4 8 C-4.33 6.68 -4.66 5.36 -5 4 C-4.0409375 3.8453125 -4.0409375 3.8453125 -3.0625 3.6875 C-2.381875 3.460625 -1.70125 3.23375 -1 3 C-0.67 2.01 -0.34 1.02 0 0 Z " fill="#DFEEF8" transform="translate(219,200)"/>
<path d="M0 0 C0.99 0 1.98 0 3 0 C1.82084294 3.53747117 0.91212322 4.04976241 -2.125 6.0625 C-2.87007813 6.56910156 -3.61515625 7.07570313 -4.3828125 7.59765625 C-11.77534172 11.55872788 -18.936961 11.26535919 -27.15234375 11.1953125 C-28.40761368 11.1924826 -29.66288361 11.18965271 -30.95619202 11.18673706 C-34.27214347 11.17747127 -37.58781301 11.15954299 -40.90368652 11.1373291 C-44.29579245 11.11676595 -47.68792766 11.10771309 -51.08007812 11.09765625 C-57.72012917 11.07565124 -64.36004833 11.04221495 -71 11 C-71 10.67 -71 10.34 -71 10 C-70.01257813 9.93941406 -69.02515625 9.87882812 -68.0078125 9.81640625 C-66.72648437 9.73261719 -65.44515625 9.64882813 -64.125 9.5625 C-62.84882813 9.48128906 -61.57265625 9.40007812 -60.2578125 9.31640625 C-57.11699848 9.20793973 -57.11699848 9.20793973 -55 8 C-55 8.66 -55 9.32 -55 10 C-49.68433142 9.53301603 -44.36956908 9.05724225 -39.0625 8.5 C-38.37285156 8.4278125 -37.68320312 8.355625 -36.97265625 8.28125 C-34.96768848 8.0537526 -34.96768848 8.0537526 -32.99609375 7.34375 C-30.36747347 6.89107175 -29.33429809 7.78686572 -27 9 C-20.22143881 9.79930967 -15.04877315 9.02438657 -9 6 C-8.01 6 -7.02 6 -6 6 C-6 4.68 -6 3.36 -6 2 C-5.195625 1.855625 -4.39125 1.71125 -3.5625 1.5625 C-1.07896294 1.25864751 -1.07896294 1.25864751 0 0 Z " fill="#1356B4" transform="translate(332,266)"/>
<path d="M0 0 C-0.99 0.66 -1.98 1.32 -3 2 C-4.29603279 2.97338027 -5.58739023 3.95300459 -6.875 4.9375 C-9.11687814 6.63837647 -11.22519884 8.12569238 -13.6875 9.5 C-18.41450781 12.56616723 -21.21142294 17.21958218 -24 22 C-24.66 22.66 -25.32 23.32 -26 24 C-26.68753301 25.65816784 -27.35561283 27.32459336 -28 29 C-28.33 29.33 -28.66 29.66 -29 30 C-29.36760731 32.32817964 -29.70241581 34.6618385 -30 37 C-30.33 37 -30.66 37 -31 37 C-31.08076963 34.54101345 -31.14037143 32.08466258 -31.1875 29.625 C-31.21263672 28.92632812 -31.23777344 28.22765625 -31.26367188 27.5078125 C-31.29296875 25.4765625 -31.29296875 25.4765625 -31 22 C-28 20 -28 20 -25 20 C-24.773125 19.13375 -24.54625 18.2675 -24.3125 17.375 C-22.72118293 13.28304181 -21.06449852 11.13746278 -18 8 C-15.75 7.3125 -15.75 7.3125 -14 7 C-13.67 6.01 -13.34 5.02 -13 4 C-8.60036521 0.33363768 -5.68154235 -0.45452339 0 0 Z " fill="#58AAE3" transform="translate(167,210)"/>
<path d="M0 0 C0.639375 0.804375 1.27875 1.60875 1.9375 2.4375 C3.96636932 5.37966939 3.96636932 5.37966939 6.9609375 6.24609375 C8.56493299 6.37327139 10.16910149 6.49828627 11.7734375 6.62109375 C14 7 14 7 17 9 C17 9.99 17 10.98 17 12 C11.58572186 13.80475938 4.95442706 14.31964409 -0.34375 11.953125 C-2.25 10.625 -2.25 10.625 -5 8 C-5 7.34 -5 6.68 -5 6 C-3.68 5.67 -2.36 5.34 -1 5 C-0.67 3.35 -0.34 1.7 0 0 Z " fill="#D0E6F6" transform="translate(229,226)"/>
<path d="M0 0 C0.495 1.98 0.495 1.98 1 4 C-0.670625 4.2165625 -0.670625 4.2165625 -2.375 4.4375 C-5.82142047 4.78372035 -5.82142047 4.78372035 -8 6 C-9.134375 5.95875 -10.26875 5.9175 -11.4375 5.875 C-14.91813079 5.63612731 -14.91813079 5.63612731 -16.75 7.4375 C-17.1625 7.953125 -17.575 8.46875 -18 9 C-20.65918166 9.88639389 -22.48064641 10.17989025 -25.23046875 10.31640625 C-26.03291016 10.35830078 -26.83535156 10.40019531 -27.66210938 10.44335938 C-28.49548828 10.48267578 -29.32886719 10.52199219 -30.1875 10.5625 C-31.03248047 10.60568359 -31.87746094 10.64886719 -32.74804688 10.69335938 C-34.83184433 10.79931518 -36.91590103 10.9001502 -39 11 C-39.33 11.99 -39.66 12.98 -40 14 C-40.33 12.02 -40.66 10.04 -41 8 C-36.17833194 6.64979873 -31.26498601 6.75463946 -26.28710938 6.74609375 C-21.98867491 6.60243455 -20.49719738 6.44974701 -17.17578125 3.4453125 C-16.45777344 2.63835937 -15.73976563 1.83140625 -15 1 C-11.625 1.125 -11.625 1.125 -8 2 C-6.0509375 2.2784375 -6.0509375 2.2784375 -4.0625 2.5625 C-2.5465625 2.7790625 -2.5465625 2.7790625 -1 3 C-0.67 2.01 -0.34 1.02 0 0 Z " fill="#5D97C7" transform="translate(289,226)"/>
<path d="M0 0 C1.66611905 -0.042721 3.33382885 -0.04063832 5 0 C6.75559942 1.75559942 6.13221919 4.03582442 6.13671875 6.37109375 C6.13285156 7.07363281 6.12898438 7.77617187 6.125 8.5 C6.12886719 9.20253906 6.13273437 9.90507812 6.13671875 10.62890625 C6.12661378 15.87338622 6.12661378 15.87338622 5 17 C2.5 17.125 2.5 17.125 0 17 C-1.7855869 15.2144131 -1.4618661 12.61086668 -1.6875 10.1875 C-1.79449219 9.12917969 -1.90148437 8.07085937 -2.01171875 6.98046875 C-1.99985952 3.96427127 -1.58867798 2.51388507 0 0 Z " fill="#F0F6FA" transform="translate(280,305)"/>
<path d="M0 0 C0.66 0 1.32 0 2 0 C1.979375 1.093125 1.95875 2.18625 1.9375 3.3125 C1.81455548 6.94384191 1.81455548 6.94384191 3 10 C-0.63 10 -4.26 10 -8 10 C-8 11.65 -8 13.3 -8 15 C-8.99 15 -9.98 15 -11 15 C-11 14.01 -11 13.02 -11 12 C-16.28 12 -21.56 12 -27 12 C-27 11.01 -27 10.02 -27 9 C-25.77023438 8.96261719 -24.54046875 8.92523438 -23.2734375 8.88671875 C-21.64059599 8.82102972 -20.00778482 8.75458341 -18.375 8.6875 C-17.56675781 8.66494141 -16.75851563 8.64238281 -15.92578125 8.61914062 C-10.9424149 8.39630717 -7.30386223 7.77152738 -3 5 C-1.26509754 2.41556677 -1.26509754 2.41556677 0 0 Z " fill="#6DA0C8" transform="translate(265,213)"/>
<path d="M0 0 C4.48440677 -0.45759253 7.11895034 -0.25049844 10.6875 2.4375 C11.49767578 3.11619141 11.49767578 3.11619141 12.32421875 3.80859375 C14.19748402 5.14040239 15.75798421 5.57504276 18 6 C18 6.66 18 7.32 18 8 C17.01 8 16.02 8 15 8 C15 11.3 15 14.6 15 18 C16.32 18 17.64 18 19 18 C19.33 17.01 19.66 16.02 20 15 C20.66 15 21.32 15 22 15 C22 16.65 22 18.3 22 20 C15.375 21.25 15.375 21.25 12 19 C11.58096988 15.93446384 11.56026046 12.93962395 11.50390625 9.84765625 C11.26281836 6.92203741 11.26281836 6.92203741 9.19921875 5.1640625 C6.20278792 3.57802984 3.34730014 3.32185578 0 3 C0 2.01 0 1.02 0 0 Z " fill="#78ACCF" transform="translate(265,203)"/>
<path d="M0 0 C1.65 0.33 3.3 0.66 5 1 C6.08020539 3.65896712 6.25828453 5.36877192 5.1640625 8.04296875 C3.12506358 11.60797004 1.72960501 13.63519749 -2 15.5 C-4.74624743 15.95770791 -7.22395185 16.16329695 -10 16 C-10.33 14.68 -10.66 13.36 -11 12 C-8 11 -8 11 -6 10.8125 C-3.67865582 10.10277014 -3.67865582 10.10277014 -2.3125 7.1875 C-1.31126643 4.75593277 -0.49406711 2.56914895 0 0 Z " fill="#D6E0EC" transform="translate(256,314)"/>
<path d="M0 0 C4.03249014 0.86410503 5.34085749 3.26318304 7.625 6.5625 C8.265625 8.765625 8.265625 8.765625 8.625 10.5625 C7.79355469 10.4903125 6.96210938 10.418125 6.10546875 10.34375 C5.01878906 10.2509375 3.93210938 10.158125 2.8125 10.0625 C1.73355469 9.9696875 0.65460938 9.876875 -0.45703125 9.78125 C-3.38590811 9.52512162 -3.38590811 9.52512162 -6.375 9.5625 C-7.035 10.8825 -7.695 12.2025 -8.375 13.5625 C-8.705 12.9025 -9.035 12.2425 -9.375 11.5625 C-8.703125 9.72265625 -8.703125 9.72265625 -7.625 7.625 C-7.27953125 6.93535156 -6.9340625 6.24570312 -6.578125 5.53515625 C-4.77587315 2.58016539 -3.42158923 0.8103764 0 0 Z " fill="#2172C4" transform="translate(230.375,261.4375)"/>
<path d="M0 0 C1.65 0.33 3.3 0.66 5 1 C4.1875 3.4375 4.1875 3.4375 3 6 C2.01 6.33 1.02 6.66 0 7 C-0.2165625 8.11375 -0.2165625 8.11375 -0.4375 9.25 C-0.90187492 11.52027739 -1.41863569 13.75759479 -2 16 C-2.66 16 -3.32 16 -4 16 C-4.33 16.99 -4.66 17.98 -5 19 C-6.32 19 -7.64 19 -9 19 C-8.52412884 12.97229862 -5.80277043 8.23321711 -3 3 C-2.34 3 -1.68 3 -1 3 C-0.67 2.01 -0.34 1.02 0 0 Z " fill="#E1EAF2" transform="translate(268,292)"/>
<path d="M0 0 C4.62 0.66 9.24 1.32 14 2 C14 2.66 14 3.32 14 4 C12.1746875 4.0928125 12.1746875 4.0928125 10.3125 4.1875 C6.84821114 4.61746493 5.95993004 5.03154444 3.0625 7.3125 C-0.19921714 11.56261628 -0.1198953 14.96963251 -0.0625 20.25 C-0.05347656 21.32765625 -0.04445312 22.4053125 -0.03515625 23.515625 C-0.02355469 24.33546875 -0.01195312 25.1553125 0 26 C-0.66 25.01 -1.32 24.02 -2 23 C-2.66 23.33 -3.32 23.66 -4 24 C-4 19.38 -4 14.76 -4 10 C-5.32 9.67 -6.64 9.34 -8 9 C-8 8.34 -8 7.68 -8 7 C-5.36 7.33 -2.72 7.66 0 8 C0.79953138 4.71303767 1.09658936 3.28976808 0 0 Z " fill="#82B4D7" transform="translate(232,186)"/>
<path d="M0 0 C3 0.125 3 0.125 4 1.125 C4.16796875 3.05078125 4.16796875 3.05078125 4.1875 5.4375 C4.20167969 6.21738281 4.21585938 6.99726563 4.23046875 7.80078125 C3.97984413 10.3282668 3.26373772 11.94218031 2 14.125 C0.35 13.795 -1.3 13.465 -3 13.125 C-3.94738023 10.28285932 -4.13460559 8.44891609 -4.125 5.5 C-4.12757813 4.70335937 -4.13015625 3.90671875 -4.1328125 3.0859375 C-3.91310341 -0.15800254 -3.31313855 0.13804744 0 0 Z " fill="#EEF4F9" transform="translate(184,280.875)"/>
<path d="M0 0 C0.99 0.33 1.98 0.66 3 1 C2.34 1 1.68 1 1 1 C1 1.99 1 2.98 1 4 C2.216875 3.95875 3.43375 3.9175 4.6875 3.875 C8.21894127 3.86245492 10.80003566 4.40001783 14 6 C14 7.65 14 9.3 14 11 C9.19563218 11.38434943 5.90975143 11.47968712 1.5625 9.1875 C-1 7 -1 7 -3 4 C-2.01 4 -1.02 4 0 4 C0 2.68 0 1.36 0 0 Z " fill="#D5EDFB" transform="translate(206,216)"/>
<path d="M0 0 C-0.33 0.99 -0.66 1.98 -1 3 C-3.07421875 3.87890625 -3.07421875 3.87890625 -5.6875 4.5625 C-7.04681641 4.93375 -7.04681641 4.93375 -8.43359375 5.3125 C-9.28050781 5.539375 -10.12742188 5.76625 -11 6 C-13.00382009 6.65509503 -15.00458132 7.31974363 -17 8 C-18.423125 8.4021875 -18.423125 8.4021875 -19.875 8.8125 C-23.3817616 10.14506941 -26.18659779 11.95589577 -29.265625 14.07421875 C-29.83796875 14.37972656 -30.4103125 14.68523437 -31 15 C-31.66 14.67 -32.32 14.34 -33 14 C-31.625 12 -31.625 12 -30 10 C-29.34 10 -28.68 10 -28 10 C-27.67 9.01 -27.34 8.02 -27 7 C-23.99484397 5.30959973 -21.24764025 4.89094296 -17.875 4.625 C-13.00248822 4.19097794 -8.81335634 2.62946994 -4.28515625 0.83984375 C-2 0 -2 0 0 0 Z " fill="#86C8ED" transform="translate(184,199)"/>
<path d="M0 0 C9.29193034 0.45698018 19.86813854 3.79211097 26.58203125 10.60546875 C27.72135417 12.0703125 28.86067708 13.53515625 30 15 C29.01 15.495 29.01 15.495 28 16 C28 15.34 28 14.68 28 14 C26.576875 13.9071875 26.576875 13.9071875 25.125 13.8125 C24.09375 13.544375 23.0625 13.27625 22 13 C20.625 10.4375 20.625 10.4375 20 8 C18.7625 8.0928125 18.7625 8.0928125 17.5 8.1875 C13.11806304 7.95275338 10.04504918 6.67381346 6 5 C6 4.34 6 3.68 6 3 C3.03 2.505 3.03 2.505 0 2 C0 1.34 0 0.68 0 0 Z " fill="#A7D5F1" transform="translate(308,196)"/>
<path d="M0 0 C1.68208635 0.97383946 3.34738161 1.97695052 5 3 C6.49247276 3.32801599 7.99392446 3.61653159 9.5 3.875 C13.94139402 4.74993238 16.17722144 6.35770509 19 10 C19 10.66 19 11.32 19 12 C15.20696275 10.99806563 12.28463659 10.18975773 9 8 C9 7.34 9 6.68 9 6 C3.72 5.34 -1.56 4.68 -7 4 C-7 3.34 -7 2.68 -7 2 C-7.66 1.67 -8.32 1.34 -9 1 C-5.93570224 -0.53214888 -3.3834358 -0.22938548 0 0 Z " fill="#5DABE2" transform="translate(324,206)"/>
<path d="M0 0 C6.16966911 -0.52928019 9.29118089 0.81827715 14.1875 4.1875 C14.79013672 4.57486328 15.39277344 4.96222656 16.01367188 5.36132812 C19.71343136 7.8183583 22.38444979 10.34601794 25 14 C22.69 13.34 20.38 12.68 18 12 C18 11.34 18 10.68 18 10 C14.42152963 8.54767747 10.81939893 7.18773455 7.1875 5.875 C5.72376953 5.34519531 5.72376953 5.34519531 4.23046875 4.8046875 C3.49441406 4.53914062 2.75835937 4.27359375 2 4 C2 3.34 2 2.68 2 2 C1.34 1.34 0.68 0.68 0 0 Z " fill="#ACE0F6" transform="translate(267,148)"/>
<path d="M0 0 C-2 2 -2 2 -3.87939453 2.22705078 C-4.62302246 2.21657715 -5.36665039 2.20610352 -6.1328125 2.1953125 C-7.34130859 2.18564453 -7.34130859 2.18564453 -8.57421875 2.17578125 C-9.41597656 2.15902344 -10.25773437 2.14226562 -11.125 2.125 C-12.39923828 2.11146484 -12.39923828 2.11146484 -13.69921875 2.09765625 C-15.79959884 2.07405647 -17.89983444 2.03818483 -20 2 C-20 2.99 -20 3.98 -20 5 C-14.72 5 -9.44 5 -4 5 C-4.33 5.66 -4.66 6.32 -5 7 C-10.61 6.67 -16.22 6.34 -22 6 C-21.67 6.66 -21.34 7.32 -21 8 C-18.47266765 8.65555119 -18.47266765 8.65555119 -16 9 C-16 9.33 -16 9.66 -16 10 C-21.28497409 10.44041451 -21.28497409 10.44041451 -24 10 C-26.5 7.5 -26.5 7.5 -28 5 C-23.42210955 1.47311984 -20.48566263 0.46825369 -14.5625 0.25 C-13.30566406 0.19328125 -12.04882812 0.1365625 -10.75390625 0.078125 C-7.167841 0.00349305 -3.58671719 -0.01851209 0 0 Z " fill="#CBE6F7" transform="translate(258,220)"/>
<path d="M0 0 C0 0.33 0 0.66 0 1 C-0.99966797 1.03867188 -0.99966797 1.03867188 -2.01953125 1.078125 C-10.29771876 1.58755192 -19.04333848 2.79514425 -25 9 C-25.66 9 -26.32 9 -27 9 C-27.33 9.99 -27.66 10.98 -28 12 C-29.59375 13.31640625 -29.59375 13.31640625 -31.5 14.5625 C-34.25536594 16.31619395 -34.25536594 16.31619395 -36 19 C-36.66 19 -37.32 19 -38 19 C-35.82167164 12.18821076 -30.06801494 7.42950892 -24.03125 3.82421875 C-22.3125 3.0625 -22.3125 3.0625 -19 2 C-17.948125 1.608125 -16.89625 1.21625 -15.8125 0.8125 C-10.52388999 -0.31458082 -5.38588594 -0.15918875 0 0 Z " fill="#BEE1F7" transform="translate(180,198)"/>
<path d="M0 0 C2.31 0 4.62 0 7 0 C6 3 6 3 4 4 C3.61866701 5.9914056 3.28674418 7.99279077 3 10 C2.67 10.66 2.34 11.32 2 12 C-0.31 12 -2.62 12 -5 12 C-4.67 10.35 -4.34 8.7 -4 7 C-5.32 7.33 -6.64 7.66 -8 8 C-7.67 7.34 -7.34 6.68 -7 6 C-3.9375 5.375 -3.9375 5.375 -1 5 C-0.67 3.35 -0.34 1.7 0 0 Z " fill="#EFF4F8" transform="translate(292,281)"/>
<path d="M0 0 C0.66 0 1.32 0 2 0 C1.91548357 2.87355849 1.45477932 4.54298589 -0.58984375 6.59765625 C-1.8447597 7.6421364 -3.11675301 8.66649466 -4.40625 9.66796875 C-6.13113625 10.92936016 -6.13113625 10.92936016 -7 13 C-7.12488834 15.61684643 -7.18516963 18.19548918 -7.1875 20.8125 C-7.19974609 21.52470703 -7.21199219 22.23691406 -7.22460938 22.97070312 C-7.23607389 27.1017489 -6.84522492 30.28767002 -5 34 C-6.32 33.67 -7.64 33.34 -9 33 C-10.87070316 23.68965425 -11.51906515 16.75786321 -7.6875 8 C-6 6 -6 6 -3.3125 5.1875 C-2.549375 5.125625 -1.78625 5.06375 -1 5 C-0.67 3.35 -0.34 1.7 0 0 Z " fill="#60AEDE" transform="translate(209,188)"/>
<path d="M0 0 C-8.61730002 5.74486668 -17.84991892 6.70364727 -28 7 C-22.82753602 1.21330592 -14.93659965 0.66193945 -7.578125 0.11328125 C-5.0481233 0.00211451 -2.53207635 -0.02277047 0 0 Z " fill="#A1D7F3" transform="translate(185,198)"/>
<path d="M0 0 C0.99435406 3.09354597 0.87840996 4.90279155 0 8 C-5.72916349 8.02478342 -11.45829552 8.04289954 -17.1875 8.05493164 C-19.13509668 8.05994955 -21.08268961 8.06676534 -23.03027344 8.07543945 C-25.83529589 8.08761652 -28.64026837 8.09325383 -31.4453125 8.09765625 C-32.31116974 8.10281754 -33.17702698 8.10797882 -34.06912231 8.11329651 C-38.4972821 8.11370419 -42.64025202 7.89613596 -47 7 C-47 6.67 -47 6.34 -47 6 C-36.28539694 5.85963402 -25.6879768 6.26740918 -15 7 C-15 6.34 -15 5.68 -15 5 C-14.071875 5.185625 -13.14375 5.37125 -12.1875 5.5625 C-8.98656229 6.24123881 -8.98656229 6.24123881 -6 5 C-3.3125 5.4375 -3.3125 5.4375 -1 6 C-0.67 4.02 -0.34 2.04 0 0 Z " fill="#346DBA" transform="translate(215,270)"/>
<path d="M0 0 C3.85119054 -0.28527337 7.30992118 -0.18082522 11 1 C11.45763495 6.72043683 10.71653644 9.59883843 7 14 C3.7092334 16.71845937 1.90359136 17.93306731 -2.375 18.25 C-3.24125 18.1675 -4.1075 18.085 -5 18 C-5 17.01 -5 16.02 -5 15 C-2.03 15 0.94 15 4 15 C4.66 13.68 5.32 12.36 6 11 C6.66 11 7.32 11 8 11 C8.144375 10.071875 8.28875 9.14375 8.4375 8.1875 C9 5 9 5 10 2 C4.06 2.495 4.06 2.495 -2 3 C-1.34 2.01 -0.68 1.02 0 0 Z " fill="#BEE2F7" transform="translate(274,231)"/>
<path d="M0 0 C1.28487305 -0.00386719 1.28487305 -0.00386719 2.59570312 -0.0078125 C3.9347168 0.00378906 3.9347168 0.00378906 5.30078125 0.015625 C6.61079102 0.00402344 6.61079102 0.00402344 7.94726562 -0.0078125 C13.50269812 0.00878327 18.28140938 0.70144373 23.61328125 2.265625 C21.61328125 4.265625 21.61328125 4.265625 19.13671875 4.27734375 C18.09773438 4.17035156 17.05875 4.06335938 15.98828125 3.953125 C10.59346682 3.44566205 5.2090133 3.02592317 -0.19921875 2.703125 C-1.58073105 2.61852027 -2.96224162 2.53388747 -4.34375 2.44921875 C-5.34792969 2.38863281 -6.35210937 2.32804688 -7.38671875 2.265625 C-4.27004935 0.1878454 -3.54430123 0.0103667 0 0 Z " fill="#CCEEFA" transform="translate(242.38671875,142.734375)"/>
<path d="M0 0 C1.16144531 0.00902344 2.32289063 0.01804688 3.51953125 0.02734375 C4.39996094 0.03894531 5.28039062 0.05054688 6.1875 0.0625 C3.10118381 1.79719762 0.36217136 2.51007681 -3.125 3.0625 C-7.47822531 3.79776326 -11.59973066 4.75186065 -15.8125 6.0625 C-15.1525 5.0725 -14.4925 4.0825 -13.8125 3.0625 C-13.1525 3.0625 -12.4925 3.0625 -11.8125 3.0625 C-11.8125 2.4025 -11.8125 1.7425 -11.8125 1.0625 C-7.81454108 0.10630267 -4.10446078 -0.0414592 0 0 Z M-15.8125 7.0625 C-19.36889236 9.36369506 -22.75968288 10.83722971 -26.8125 12.0625 C-20.55456349 5.63988095 -20.55456349 5.63988095 -15.8125 7.0625 Z " fill="#95D6F4" transform="translate(233.8125,149.9375)"/>
<path d="M0 0 C2.64 0 5.28 0 8 0 C7.2884375 0.61875 7.2884375 0.61875 6.5625 1.25 C4.7447188 3.28591495 4.30853216 4.30034358 4 7 C4.27050453 9.00946222 4.59367909 11.01354224 5 13 C3.02 14.32 1.04 15.64 -1 17 C-1.99 16.34 -2.98 15.68 -4 15 C-4 14.34 -4 13.68 -4 13 C-2.02 13 -0.04 13 2 13 C1.34 8.71 0.68 4.42 0 0 Z " fill="#3684C7" transform="translate(269,249)"/>
<path d="M0 0 C0 0.99 0 1.98 0 3 C-1.093125 3.391875 -2.18625 3.78375 -3.3125 4.1875 C-7.00166165 5.740053 -8.03541101 7.51731951 -10 11 C-10.86625 11.33 -11.7325 11.66 -12.625 12 C-13.800625 12.495 -13.800625 12.495 -15 13 C-15.89386164 15.54775306 -15.89386164 15.54775306 -16 18 C-16.33 18 -16.66 18 -17 18 C-17.3125 15.25 -17.3125 15.25 -17 12 C-14.6875 9.9375 -14.6875 9.9375 -12 8 C-10.98812105 6.34051852 -9.9873454 4.67419438 -9 3 C-6.02337911 0.12259981 -4.10147025 -0.34178919 0 0 Z " fill="#88B9D9" transform="translate(223,190)"/>
<path d="M0 0 C1.80078125 0.12109375 1.80078125 0.12109375 4 1 C8.04921289 7.45787816 10.70112355 14.37865062 11 22 C10.34 22 9.68 22 9 22 C9 20.68 9 19.36 9 18 C8.34 18 7.68 18 7 18 C6.84144531 17.22914063 6.68289063 16.45828125 6.51953125 15.6640625 C6.28621094 14.66117188 6.05289062 13.65828125 5.8125 12.625 C5.59207031 11.62726563 5.37164062 10.62953125 5.14453125 9.6015625 C4.2232966 6.76877637 4.2232966 6.76877637 1.38671875 5.6484375 C0.20529297 5.32746094 0.20529297 5.32746094 -1 5 C-0.67 3.35 -0.34 1.7 0 0 Z " fill="#90C8EA" transform="translate(297,171)"/>
<path d="M0 0 C0.99 0.33 1.98 0.66 3 1 C4.48882438 5.07467725 5.26270217 8.66541415 5 13 C3.02 13 1.04 13 -1 13 C-1.66 10.69 -2.32 8.38 -3 6 C-2.01 6 -1.02 6 0 6 C0 4.02 0 2.04 0 0 Z " fill="#C5E3F7" transform="translate(266,248)"/>
<path d="M0 0 C2.31 0 4.62 0 7 0 C7.02688151 1.64574566 7.04634123 3.29161413 7.0625 4.9375 C7.07410156 5.85402344 7.08570313 6.77054687 7.09765625 7.71484375 C7 10 7 10 6 11 C4.33382885 11.04063832 2.66611905 11.042721 1 11 C0.67 10.01 0.34 9.02 0 8 C0.66 8 1.32 8 2 8 C2 6.35 2 4.7 2 3 C1.67 3.33 1.34 3.66 1 4 C0.67 2.68 0.34 1.36 0 0 Z " fill="#EEF2F9" transform="translate(255,281)"/>
<path d="M0 0 C0.33 0.66 0.66 1.32 1 2 C1.66 2 2.32 2 3 2 C2.69078116 3.45903258 2.37751201 4.91720722 2.0625 6.375 C1.88847656 7.18710937 1.71445313 7.99921875 1.53515625 8.8359375 C1 11 1 11 0 13 C5.94 13 11.88 13 18 13 C18 13.33 18 13.66 18 14 C8.595 14.495 8.595 14.495 -1 15 C-1.33 13.35 -1.66 11.7 -2 10 C-2.2475 9.360625 -2.495 8.72125 -2.75 8.0625 C-3.140526 4.84066053 -1.55863615 2.74319962 0 0 Z " fill="#D7E6F4" transform="translate(220,265)"/>
<path d="M0 0 C0.33 1.32 0.66 2.64 1 4 C-0.670625 4.2165625 -0.670625 4.2165625 -2.375 4.4375 C-5.82142047 4.78372035 -5.82142047 4.78372035 -8 6 C-9.11375 5.95875 -10.2275 5.9175 -11.375 5.875 C-15.17550316 6.00605183 -16.32511434 6.43210977 -19 9 C-19.33 8.01 -19.66 7.02 -20 6 C-17.9375 3.4375 -17.9375 3.4375 -15 1 C-11.625 1.125 -11.625 1.125 -8 2 C-6.700625 2.185625 -5.40125 2.37125 -4.0625 2.5625 C-3.051875 2.706875 -2.04125 2.85125 -1 3 C-0.67 2.01 -0.34 1.02 0 0 Z " fill="#6BA2CE" transform="translate(289,226)"/>
<path d="M0 0 C0.66 0 1.32 0 2 0 C2.28875 0.969375 2.5775 1.93875 2.875 2.9375 C3.64214682 6.10664203 3.64214682 6.10664203 6 7 C5.47535095 11.61691161 4.92509086 13.09987886 2 17 C1.34 13.7 0.68 10.4 0 7 C-0.99 6.67 -1.98 6.34 -3 6 C-2.01 6 -1.02 6 0 6 C0 4.02 0 2.04 0 0 Z " fill="#F1F8FB" transform="translate(241,272)"/>
<path d="M0 0 C0.86625 0.3403125 0.86625 0.3403125 1.75 0.6875 C-0.21466413 1.75525224 -2.21855359 2.75303465 -4.25 3.6875 C-4.91 3.3575 -5.57 3.0275 -6.25 2.6875 C-2.80384615 -0.38942308 -2.80384615 -0.38942308 0 0 Z M-8.25 3.6875 C-7.59 4.0175 -6.93 4.3475 -6.25 4.6875 C-6.69730469 5.06261719 -7.14460938 5.43773437 -7.60546875 5.82421875 C-13.60708167 10.90447531 -18.68922539 15.56595079 -22.25 22.6875 C-22.91 22.3575 -23.57 22.0275 -24.25 21.6875 C-22.43095535 16.33736867 -20.42133057 13.52301247 -15.96875 10.046875 C-14.22240909 8.72202342 -14.22240909 8.72202342 -12.71875 7.140625 C-11.25 5.6875 -11.25 5.6875 -8.25 3.6875 Z " fill="#68B5E9" transform="translate(164.25,207.3125)"/>
<path d="M0 0 C2.10388569 -0.05402274 4.20816714 -0.09280256 6.3125 -0.125 C8.07013672 -0.15980469 8.07013672 -0.15980469 9.86328125 -0.1953125 C13 0 13 0 16 2 C16 2.66 16 3.32 16 4 C10.06 4 4.12 4 -2 4 C-1.34 2.68 -0.68 1.36 0 0 Z " fill="#1156B3" transform="translate(223,273)"/>
<path d="M0 0 C2.875 -0.125 2.875 -0.125 6 0 C6.66 0.66 7.32 1.32 8 2 C7.67 3.32 7.34 4.64 7 6 C0.07 6 -6.86 6 -14 6 C-14 5.67 -14 5.34 -14 5 C-9.38 4.67 -4.76 4.34 0 4 C0 2.68 0 1.36 0 0 Z " fill="#EBF1F6" transform="translate(336,293)"/>
<path d="M0 0 C0.91910156 0.15339844 1.83820313 0.30679687 2.78515625 0.46484375 C7.97896901 1.206817 13.20025636 1.35464583 18.4375 1.5625 C19.45521484 1.60568359 20.47292969 1.64886719 21.52148438 1.69335938 C24.01421028 1.79868582 26.50702338 1.90081672 29 2 C28.67 2.66 28.34 3.32 28 4 C19.92905177 4.10466648 12.0125322 4.03387512 4 3 C3.67 3.66 3.34 4.32 3 5 C2.01 4.34 1.02 3.68 0 3 C0 2.01 0 1.02 0 0 Z " fill="#EDF3F7" transform="translate(305,291)"/>
<path d="M0 0 C0.99 0 1.98 0 3 0 C1.39993079 4.80020762 -2.72377057 6.58510668 -7 9 C-11.13613222 10.51658182 -14.60160993 11.2665691 -19 11 C-14.94191935 8.2946129 -10.95110601 6 -6 6 C-6 4.68 -6 3.36 -6 2 C-4.7934375 1.7834375 -4.7934375 1.7834375 -3.5625 1.5625 C-1.07896294 1.25864751 -1.07896294 1.25864751 0 0 Z " fill="#3268B5" transform="translate(332,266)"/>
<path d="M0 0 C1.27230469 0.00902344 2.54460937 0.01804688 3.85546875 0.02734375 C5.31919922 0.04474609 5.31919922 0.04474609 6.8125 0.0625 C6.8125 0.3925 6.8125 0.7225 6.8125 1.0625 C2.1925 1.3925 -2.4275 1.7225 -7.1875 2.0625 C-7.1875 2.7225 -7.1875 3.3825 -7.1875 4.0625 C-5.2075 4.0625 -3.2275 4.0625 -1.1875 4.0625 C-1.1875 4.7225 -1.1875 5.3825 -1.1875 6.0625 C-2.1775 6.0625 -3.1675 6.0625 -4.1875 6.0625 C-4.5175 7.3825 -4.8475 8.7025 -5.1875 10.0625 C-7.2120738 8.12995228 -8.60855792 6.43091312 -10.1875 4.0625 C-10.1875 3.0725 -10.1875 2.0825 -10.1875 1.0625 C-6.62704823 -0.12431726 -3.74941663 -0.03439832 0 0 Z " fill="#C7E2F7" transform="translate(260.1875,235.9375)"/>
<path d="M0 0 C3 1 3 1 4 3 C6.25946584 3.35557331 8.4899777 3.44330506 10.7734375 3.55859375 C13.40992861 4.08126655 14.31415098 4.96066651 16 7 C15.34 7.66 14.68 8.32 14 9 C13.67 8.67 13.34 8.34 13 8 C11.56469761 7.86898863 10.12641036 7.76992531 8.6875 7.6875 C5.38150532 7.35584767 4.19145412 7.14008838 1.4375 5.125 C0 3 0 3 0 0 Z " fill="#629AC3" transform="translate(230,226)"/>
<path d="M0 0 C7.75 0.875 7.75 0.875 10 2 C9.01 3.485 9.01 3.485 8 5 C8.99 5 9.98 5 11 5 C11 5.66 11 6.32 11 7 C6.17639811 7.19294408 2.50353262 6.75747614 -2 5 C-1.34 4.01 -0.68 3.02 0 2 C0 1.34 0 0.68 0 0 Z " fill="#D0EBFA" transform="translate(277,222)"/>
<path d="M0 0 C1.65 0.33 3.3 0.66 5 1 C5 3.31 5 5.62 5 8 C3.02 8.33 1.04 8.66 -1 9 C-0.67 6.03 -0.34 3.06 0 0 Z " fill="#F0F8F9" transform="translate(243,200)"/>
<path d="M0 0 C0.99 0.33 1.98 0.66 3 1 C2.34 1 1.68 1 1 1 C1 1.99 1 2.98 1 4 C3.64 4 6.28 4 9 4 C9 4.33 9 4.66 9 5 C7.02 5 5.04 5 3 5 C3 5.66 3 6.32 3 7 C6.53411321 9.12046792 9.94393835 9.53199289 14 10 C14 10.33 14 10.66 14 11 C9.19563218 11.38434943 5.90975143 11.47968712 1.5625 9.1875 C-1 7 -1 7 -3 4 C-2.01 4 -1.02 4 0 4 C0 2.68 0 1.36 0 0 Z " fill="#BADDF3" transform="translate(206,216)"/>
<path d="M0 0 C-1.375 2 -1.375 2 -3 4 C-3.66 4 -4.32 4 -5 4 C-5.20625 4.61875 -5.4125 5.2375 -5.625 5.875 C-7.54775888 8.84653645 -9.66594527 9.13024659 -13 10 C-11.13514314 5.59215652 -8.31445364 0.9919087 -3.8125 -0.9375 C-2 -1 -2 -1 0 0 Z " fill="#ABDDF6" transform="translate(209,160)"/>
<path d="M0 0 C0 3.70103827 -1.3608576 5.72171521 -3 9 C-3 9.99 -3 10.98 -3 12 C-2.34 12 -1.68 12 -1 12 C-0.67 10.35 -0.34 8.7 0 7 C0.66 7.33 1.32 7.66 2 8 C1.67 9.98 1.34 11.96 1 14 C-0.66611905 14.042721 -2.33382885 14.04063832 -4 14 C-5 13 -5 13 -5.375 9.25 C-5.36162636 5.53212766 -5.06306844 5.07568212 -2.5 2 C-1.675 1.34 -0.85 0.68 0 0 Z " fill="#DAEFFB" transform="translate(228,218)"/>
<path d="M0 0 C2.97 0 5.94 0 9 0 C9.66 1.32 10.32 2.64 11 4 C7.04 4 3.08 4 -1 4 C-0.67 2.68 -0.34 1.36 0 0 Z " fill="#D4E8F9" transform="translate(234,233)"/>
<path d="M0 0 C1.9451 2.91765 2.45276317 4.62537285 3 8 C3.99 8.33 4.98 8.66 6 9 C-0.75 13 -0.75 13 -3 13 C-3.33 13.99 -3.66 14.98 -4 16 C-4.66 15.01 -5.32 14.02 -6 13 C-3.59660228 10.23609263 -2.83736322 9.95934081 1 9 C0.67 6.03 0.34 3.06 0 0 Z " fill="#679FC9" transform="translate(229,206)"/>
<path d="M0 0 C0 0.66 0 1.32 0 2 C-0.928125 2.2475 -1.85625 2.495 -2.8125 2.75 C-6.24502542 4.0960884 -7.27146618 4.81585875 -9 8 C-9.71433121 10.64934822 -9.71433121 10.64934822 -10 13 C-10.66 12.34 -11.32 11.68 -12 11 C-11.92290713 6.83698517 -11.62578976 4.69730859 -8.8125 1.5625 C-5.58823227 -0.22875985 -3.63195497 -0.33785628 0 0 Z " fill="#7EAFD1" transform="translate(251,193)"/>
<path d="M0 0 C0.99 0 1.98 0 3 0 C3 1.65 3 3.3 3 5 C4.32 5.66 5.64 6.32 7 7 C7 7.66 7 8.32 7 9 C9.475 9.99 9.475 9.99 12 11 C12 11.66 12 12.32 12 13 C9.03 12.505 9.03 12.505 6 12 C5.67 11.01 5.34 10.02 5 9 C4.154375 8.38125 3.30875 7.7625 2.4375 7.125 C0 5 0 5 -0.3125 2.25 C-0.209375 1.5075 -0.10625 0.765 0 0 Z " fill="#61B1E4" transform="translate(305,193)"/>
<path d="M0 0 C2 1 2 1 2.8515625 3.06640625 C3.10679687 3.89011719 3.36203125 4.71382813 3.625 5.5625 C3.88539063 6.38878906 4.14578125 7.21507812 4.4140625 8.06640625 C4.60742188 8.70449219 4.80078125 9.34257812 5 10 C3.02 10.99 1.04 11.98 -1 13 C-2.03713245 8.54033047 -1.95103969 6.13161346 0 2 C0 1.34 0 0.68 0 0 Z " fill="#EBEEF6" transform="translate(235,296)"/>
<path d="M0 0 C1.4540625 0.0309375 1.4540625 0.0309375 2.9375 0.0625 C2.9375 0.7225 2.9375 1.3825 2.9375 2.0625 C1.2875 2.0625 -0.3625 2.0625 -2.0625 2.0625 C-1.7325 3.0525 -1.4025 4.0425 -1.0625 5.0625 C-0.0725 5.3925 0.9175 5.7225 1.9375 6.0625 C1.9375 7.0525 1.9375 8.0425 1.9375 9.0625 C-0.0425 9.0625 -2.0225 9.0625 -4.0625 9.0625 C-4.16015625 2.91015625 -4.16015625 2.91015625 -4.0625 1.0625 C-3.0625 0.0625 -3.0625 0.0625 0 0 Z " fill="#E6EDF4" transform="translate(277.0625,280.9375)"/>
<path d="M0 0 C0.66 0 1.32 0 2 0 C2 0.99 2 1.98 2 3 C2.66 3 3.32 3 4 3 C4 3.66 4 4.32 4 5 C4.99 5 5.98 5 7 5 C6.67 6.32 6.34 7.64 6 9 C1.25 8.25 1.25 8.25 -1 6 C-1.1875 3.4375 -1.1875 3.4375 -1 1 C-0.67 0.67 -0.34 0.34 0 0 Z " fill="#EEF7FA" transform="translate(211,203)"/>
<path d="M0 0 C2.90821025 0.64699509 5.49201533 1.54314418 8.1875 2.8125 C8.88230469 3.12832031 9.57710938 3.44414062 10.29296875 3.76953125 C12 5 12 5 13 9 C10.03 8.01 7.06 7.02 4 6 C4 5.34 4 4.68 4 4 C2.68 3.34 1.36 2.68 0 2 C0 1.34 0 0.68 0 0 Z " fill="#88B7D3" transform="translate(267,193)"/>
<path d="M0 0 C0.99 0.33 1.98 0.66 3 1 C1.8553125 1.86625 1.8553125 1.86625 0.6875 2.75 C-2.00891579 4.83357198 -2.00891579 4.83357198 -3.6875 7.25 C-4.120625 7.8275 -4.55375 8.405 -5 9 C-5.66 9 -6.32 9 -7 9 C-7 9.66 -7 10.32 -7 11 C-8.65 11.33 -10.3 11.66 -12 12 C-10.48538542 7.75907918 -7.6897442 6.36143629 -4 4 C-2.63113049 2.70317626 -1.2830709 1.38176866 0 0 Z " fill="#94CDF1" transform="translate(156,205)"/>
<path d="M0 0 C0 0.33 0 0.66 0 1 C-0.61746094 1.07476562 -1.23492187 1.14953125 -1.87109375 1.2265625 C-8.80297889 2.30274558 -13.46421247 4.74787334 -19 9 C-19.66 8.67 -20.32 8.34 -21 8 C-19.75 6 -19.75 6 -18 4 C-16.68 4 -15.36 4 -14 4 C-14 3.34 -14 2.68 -14 2 C-9.07262981 0.02905192 -5.21979128 -0.1799928 0 0 Z " fill="#7BC1EC" transform="translate(172,205)"/>
<path d="M0 0 C3.14839906 -0.34982212 4.62023779 -0.24633224 7.3125 1.5 C9.79021837 5.17069388 9.35357912 7.61561888 9 12 C8.67 12.66 8.34 13.32 8 14 C7.34 14 6.68 14 6 14 C6 11.03 6 8.06 6 5 C4.02 4.01 2.04 3.02 0 2 C0 1.34 0 0.68 0 0 Z " fill="#78ACCF" transform="translate(252,186)"/>
<path d="M0 0 C0 0.66 0 1.32 0 2 C-0.66 2 -1.32 2 -2 2 C-2.268125 2.598125 -2.53625 3.19625 -2.8125 3.8125 C-3.98493467 5.97224808 -5.19369282 7.35790256 -7 9 C-7.66 8.67 -8.32 8.34 -9 8 C-8.8125 5.6875 -8.8125 5.6875 -8 3 C-5.10451959 0.79029126 -3.66842255 0 0 0 Z " fill="#E4F6FC" transform="translate(230,259)"/>
<path d="M0 0 C1.46322389 2.19483583 2.74430366 4.31962 4 6.625 C5.6051726 10.02820196 5.6051726 10.02820196 8 11 C8.625 13.5625 8.625 13.5625 9 16 C7.88625 14.8553125 7.88625 14.8553125 6.75 13.6875 C4.23459579 11.04006792 4.23459579 11.04006792 1.8125 9.625 C-0.88431509 7.20716578 -1.21902045 4.44932635 -2 1 C-1.34 0.67 -0.68 0.34 0 0 Z " fill="#5BA7DC" transform="translate(282,193)"/>
<path d="M0 0 C1.23556641 0.01740234 1.23556641 0.01740234 2.49609375 0.03515625 C3.32238281 0.04417969 4.14867187 0.05320313 5 0.0625 C5.63808594 0.07410156 6.27617187 0.08570313 6.93359375 0.09765625 C7.59359375 1.41765625 8.25359375 2.73765625 8.93359375 4.09765625 C5.63359375 4.09765625 2.33359375 4.09765625 -1.06640625 4.09765625 C-1.06640625 3.43765625 -1.06640625 2.77765625 -1.06640625 2.09765625 C-1.72640625 1.76765625 -2.38640625 1.43765625 -3.06640625 1.09765625 C-2.06640625 0.09765625 -2.06640625 0.09765625 0 0 Z " fill="#F9FBFD" transform="translate(236.06640625,181.90234375)"/>
<path d="M0 0 C0.25 5.625 0.25 5.625 -2 9 C-3.32 9 -4.64 9 -6 9 C-5.50909091 3.47727273 -5.50909091 3.47727273 -3 1.125 C-1 0 -1 0 0 0 Z " fill="#DAE4EB" transform="translate(265,302)"/>
<path d="M0 0 C2.8125 1.5625 2.8125 1.5625 5 3 C4.01 3.495 4.01 3.495 3 4 C2.34 3.67 1.68 3.34 1 3 C0.34 3.66 -0.32 4.32 -1 5 C-3.625 4.625 -3.625 4.625 -6 4 C-5.34 3.67 -4.68 3.34 -4 3 C-4 2.34 -4 1.68 -4 1 C-5.65 1.33 -7.3 1.66 -9 2 C-7.00822747 -1.98354506 -3.67167553 -1.04905015 0 0 Z " fill="#C9E9F9" transform="translate(234,258)"/>
<path d="M0 0 C0.66 0 1.32 0 2 0 C2.66 3.3 3.32 6.6 4 10 C3.01 10 2.02 10 1 10 C0.34 9.01 -0.32 8.02 -1 7 C-3.05925139 6.27617533 -3.05925139 6.27617533 -5 6 C-5 5.34 -5 4.68 -5 4 C-4.0409375 3.8453125 -4.0409375 3.8453125 -3.0625 3.6875 C-2.381875 3.460625 -1.70125 3.23375 -1 3 C-0.67 2.01 -0.34 1.02 0 0 Z " fill="#74ACD1" transform="translate(219,200)"/>
<path d="M0 0 C-1 2 -1 2 -3.109375 2.8515625 C-3.98078125 3.10679687 -4.8521875 3.36203125 -5.75 3.625 C-7.04164063 4.01558594 -7.04164063 4.01558594 -8.359375 4.4140625 C-10.99729006 4.99939868 -13.30801576 5.10651736 -16 5 C-10.76953337 0.7381383 -6.74841402 -0.26464369 0 0 Z " fill="#C9EAF7" transform="translate(235,145)"/>
<path d="M0 0 C2.3125 1.875 2.3125 1.875 4 4 C4 4.66 4 5.32 4 6 C3.01 6 2.02 6 1 6 C0.67 5.01 0.34 4.02 0 3 C-2.37305578 2.58219121 -2.37305578 2.58219121 -5 3 C-6.71711243 5.44496043 -6.71711243 5.44496043 -8 8 C-8.66 8 -9.32 8 -10 8 C-8.0738641 2.51792089 -6.37792666 -1.08891431 0 0 Z " fill="#4587C5" transform="translate(233,262)"/>
<path d="M0 0 C0.66 0 1.32 0 2 0 C2.45375 0.515625 2.9075 1.03125 3.375 1.5625 C3.91125 2.036875 4.4475 2.51125 5 3 C7.02919843 2.74276031 7.02919843 2.74276031 9 2 C9.99 2 10.98 2 12 2 C12.99 3.485 12.99 3.485 14 5 C9.38 5 4.76 5 0 5 C0 3.35 0 1.7 0 0 Z " fill="#1258B4" transform="translate(246,272)"/>
<path d="M0 0 C0.33 0.99 0.66 1.98 1 3 C-2.19306305 4.06435435 -4.64443996 4.20065353 -8 4.25 C-9.5778125 4.28867188 -9.5778125 4.28867188 -11.1875 4.328125 C-14 4 -14 4 -17 1 C-11.39 1.33 -5.78 1.66 0 2 C0 1.34 0 0.68 0 0 Z " fill="#AFD9F6" transform="translate(245,235)"/>
<path d="M0 0 C0.33 0 0.66 0 1 0 C1.433125 1.6396875 1.433125 1.6396875 1.875 3.3125 C2.81893204 7.04013845 2.81893204 7.04013845 5 10 C4.625 13.1875 4.625 13.1875 4 16 C3.01 15.67 2.02 15.34 1 15 C1.66 15 2.32 15 3 15 C3 13.35 3 11.7 3 10 C1.68 9.34 0.36 8.68 -1 8 C-1.04241723 5.66705225 -1.04092937 3.33297433 -1 1 C-0.67 0.67 -0.34 0.34 0 0 Z " fill="#74B1D7" transform="translate(208,202)"/>
<path d="M0 0 C1.65 0.33 3.3 0.66 5 1 C5.6875 3.3125 5.6875 3.3125 6 6 C4.5625 7.8125 4.5625 7.8125 3 9 C3 7.35 3 5.7 3 4 C2.34 3.67 1.68 3.34 1 3 C1 4.32 1 5.64 1 7 C0.34 7 -0.32 7 -1 7 C-0.67 4.69 -0.34 2.38 0 0 Z " fill="#E1E9EF" transform="translate(256,314)"/>
<path d="M0 0 C0.33 0 0.66 0 1 0 C1.19401633 1.81181405 1.38004375 3.62448532 1.5625 5.4375 C1.66691406 6.44683594 1.77132812 7.45617187 1.87890625 8.49609375 C1.93884766 9.73552734 1.93884766 9.73552734 2 11 C1 12 1 12 -2.5625 12.0625 C-3.696875 12.041875 -4.83125 12.02125 -6 12 C-5.38125 11.690625 -4.7625 11.38125 -4.125 11.0625 C-0.92315624 7.95482812 -0.68447192 4.29596194 0 0 Z " fill="#BEDFF1" transform="translate(238,201)"/>
<path d="M0 0 C0.66 0.66 1.32 1.32 2 2 C1.9375 4.4375 1.9375 4.4375 1 7 C-1.5625 8.8125 -1.5625 8.8125 -4 10 C-4.99 9.34 -5.98 8.68 -7 8 C-7 7.34 -7 6.68 -7 6 C-5.02 5.67 -3.04 5.34 -1 5 C-0.67 3.35 -0.34 1.7 0 0 Z " fill="#1D76C8" transform="translate(272,256)"/>
<path d="M0 0 C0.33 0 0.66 0 1 0 C1.42848339 5.14180069 0.80567761 8.81645847 -1.64453125 13.3984375 C-3 15 -3 15 -6.75 16 C-7.8225 16 -8.895 16 -10 16 C-9.2575 15.46375 -8.515 14.9275 -7.75 14.375 C-2.94829962 10.22807695 -0.60370484 6.33890086 0 0 Z " fill="#4690CE" transform="translate(285,233)"/>
<path d="M0 0 C0.66 0 1.32 0 2 0 C2 1.65 2 3.3 2 5 C-1.3125 5.6875 -1.3125 5.6875 -5 6 C-6.9375 4.5625 -6.9375 4.5625 -8 3 C-5.69 3 -3.38 3 -1 3 C-0.67 2.01 -0.34 1.02 0 0 Z " fill="#6DA4CB" transform="translate(285,218)"/>
<path d="M0 0 C1.45922693 0.11409593 2.91740598 0.24165544 4.375 0.375 C5.59316406 0.47941406 5.59316406 0.47941406 6.8359375 0.5859375 C9 1 9 1 11 3 C10.34 3 9.68 3 9 3 C9.33 4.65 9.66 6.3 10 8 C7.69 7.01 5.38 6.02 3 5 C3.66 4.34 4.32 3.68 5 3 C2.525 2.01 2.525 2.01 0 1 C0 0.67 0 0.34 0 0 Z " fill="#D7F0FB" transform="translate(250,181)"/>
<path d="M0 0 C1.9924325 0.37593066 3.9918674 0.71979545 6 1 C6 1.33 6 1.66 6 2 C0.39 1.67 -5.22 1.34 -11 1 C-11 0.34 -11 -0.32 -11 -1 C-6.47993228 -2.05117854 -4.19062455 -1.88578105 0 0 Z " fill="#77BCE1" transform="translate(244,180)"/>
<path d="M0 0 C0.90105469 0.00902344 1.80210937 0.01804688 2.73046875 0.02734375 C3.41753906 0.03894531 4.10460937 0.05054688 4.8125 0.0625 C4.8125 0.3925 4.8125 0.7225 4.8125 1.0625 C0.3575 1.5575 0.3575 1.5575 -4.1875 2.0625 C-3.8575 3.0525 -3.5275 4.0425 -3.1875 5.0625 C-5.8275 4.7325 -8.4675 4.4025 -11.1875 4.0625 C-7.77628592 0.32640839 -4.93646556 -0.06410994 0 0 Z " fill="#D6EFF9" transform="translate(238.1875,180.9375)"/>
<path d="M0 0 C1.98 0.495 1.98 0.495 4 1 C4.33 2.98 4.66 4.96 5 7 C3.02 6.34 1.04 5.68 -1 5 C-0.67 3.35 -0.34 1.7 0 0 Z " fill="#7EC4EB" transform="translate(297,171)"/>
<path d="M0 0 C0.66 0 1.32 0 2 0 C1.979375 1.093125 1.95875 2.18625 1.9375 3.3125 C1.81455548 6.94384191 1.81455548 6.94384191 3 10 C0.69 9.67 -1.62 9.34 -4 9 C-2.68 8.67 -1.36 8.34 0 8 C-0.37125 7.236875 -0.7425 6.47375 -1.125 5.6875 C-1.41375 4.800625 -1.7025 3.91375 -2 3 C-1.34 2.01 -0.68 1.02 0 0 Z " fill="#83B2D5" transform="translate(265,213)"/>
<path d="M0 0 C0.66 0 1.32 0 2 0 C3.65 2.97 5.3 5.94 7 9 C1.95652174 7.73913043 1.95652174 7.73913043 0 5 C-0.1875 2.3125 -0.1875 2.3125 0 0 Z " fill="#9BD3F3" transform="translate(292,162)"/>
<path d="M0 0 C0.65234375 1.734375 0.65234375 1.734375 1 4 C0.00390625 6.140625 0.00390625 6.140625 -1.4375 8.25 C-1.91058594 8.95640625 -2.38367188 9.6628125 -2.87109375 10.390625 C-3.24363281 10.92171875 -3.61617187 11.4528125 -4 12 C-5 9 -5 9 -4.2578125 6.9921875 C-3.88398438 6.29351562 -3.51015625 5.59484375 -3.125 4.875 C-2.75632813 4.17117187 -2.38765625 3.46734375 -2.0078125 2.7421875 C-1 1 -1 1 0 0 Z " fill="#B0D7F0" transform="translate(141,217)"/>
<path d="M0 0 C1.88500864 2.82751297 2.42317657 4.27652054 3.0625 7.5 C3.58700025 10.10082768 4.15796475 12.47389425 5 15 C3.68 14.67 2.36 14.34 1 14 C0.63906896 11.85529407 0.28642411 9.70919203 -0.0625 7.5625 C-0.25972656 6.36753906 -0.45695313 5.17257813 -0.66015625 3.94140625 C-0.77230469 2.97074219 -0.88445312 2.00007812 -1 1 C-0.67 0.67 -0.34 0.34 0 0 Z " fill="#51A2DA" transform="translate(199,207)"/>
<path d="M0 0 C1.6415049 3.2830098 0.51888624 6.42545033 0 10 C-0.99 10 -1.98 10 -3 10 C-3.36923077 3.47692308 -3.36923077 3.47692308 -1.5 1.0625 C-1.005 0.711875 -0.51 0.36125 0 0 Z " fill="#F7F9FB" transform="translate(205,200)"/>
<path d="M0 0 C0 3 0 3 -2 6 C-2.33 6.86625 -2.66 7.7325 -3 8.625 C-4 11 -4 11 -6 12 C-6.375 9.375 -6.375 9.375 -6 6 C-4.19946381 3.66246179 -2.2392198 1.95931733 0 0 Z " fill="#6ABAE9" transform="translate(195,179)"/>
<path d="M0 0 C1.2065625 0.0309375 1.2065625 0.0309375 2.4375 0.0625 C2.4375 1.0525 2.4375 2.0425 2.4375 3.0625 C1.4475 3.0625 0.4575 3.0625 -0.5625 3.0625 C-0.8925 4.0525 -1.2225 5.0425 -1.5625 6.0625 C-2.5525 5.7325 -3.5425 5.4025 -4.5625 5.0625 C-3.43829114 0.08386076 -3.43829114 0.08386076 0 0 Z " fill="#EEF4FB" transform="translate(142.5625,292.9375)"/>
<path d="M0 0 C2.4375 0.625 2.4375 0.625 5 2 C5.8125 5.125 5.8125 5.125 6 8 C3.5625 6.8125 3.5625 6.8125 1 5 C0.1875 2.3125 0.1875 2.3125 0 0 Z " fill="#EDF6FD" transform="translate(234,260)"/>
<path d="M0 0 C4.95 0 9.9 0 15 0 C15 0.33 15 0.66 15 1 C10.38 1.66 5.76 2.32 1 3 C0.67 2.01 0.34 1.02 0 0 Z " fill="#E8F3FC" transform="translate(236,226)"/>
<path d="M0 0 C0.33 1.32 0.66 2.64 1 4 C-0.98 4.66 -2.96 5.32 -5 6 C-5 6.66 -5 7.32 -5 8 C-7.31 8 -9.62 8 -12 8 C-12 7.67 -12 7.34 -12 7 C-10.02 7 -8.04 7 -6 7 C-5.67 5.68 -5.34 4.36 -5 3 C-3.35 3 -1.7 3 0 3 C0 2.01 0 1.02 0 0 Z " fill="#BEDFF4" transform="translate(229,211)"/>
<path d="M0 0 C2.1875 -0.375 2.1875 -0.375 5 0 C6.99022836 1.83961648 8.38989899 3.79186148 10 6 C9.01 6.495 9.01 6.495 8 7 C8 6.34 8 5.68 8 5 C7.05125 4.9175 6.1025 4.835 5.125 4.75 C2 4 2 4 0.625 1.9375 C0.41875 1.298125 0.2125 0.65875 0 0 Z " fill="#87C3EB" transform="translate(328,205)"/>
<path d="M0 0 C0.66 0.66 1.32 1.32 2 2 C1.625 4.625 1.625 4.625 1 7 C0.29875 6.525625 -0.4025 6.05125 -1.125 5.5625 C-4.16081337 3.91260143 -6.59168786 3.39631536 -10 3 C-10 2.67 -10 2.34 -10 2 C-8.37828761 1.61102839 -6.75245075 1.23921702 -5.125 0.875 C-4.22007812 0.66617188 -3.31515625 0.45734375 -2.3828125 0.2421875 C-1.20332031 0.12230469 -1.20332031 0.12230469 0 0 Z " fill="#D9ECF5" transform="translate(276,200)"/>
<path d="M0 0 C1.65 0 3.3 0 5 0 C4.2575 0.5775 3.515 1.155 2.75 1.75 C0.33912357 3.72253526 -1.84042701 5.76044282 -4 8 C-3.67 6.02 -3.34 4.04 -3 2 C-2.01 2 -1.02 2 0 2 C0 1.34 0 0.68 0 0 Z " fill="#4890CF" transform="translate(224,257)"/>
<path d="M0 0 C0.33 0 0.66 0 1 0 C1.08096803 1.45742463 1.13917774 2.91612807 1.1875 4.375 C1.22230469 5.18710938 1.25710937 5.99921875 1.29296875 6.8359375 C1.19628906 7.55007812 1.09960938 8.26421875 1 9 C0.01 9.66 -0.98 10.32 -2 11 C-1.85892253 9.54119891 -1.71197585 8.08296449 -1.5625 6.625 C-1.48128906 5.81289062 -1.40007812 5.00078125 -1.31640625 4.1640625 C-1 2 -1 2 0 0 Z " fill="#9ACEEB" transform="translate(188,182)"/>
<path d="M0 0 C3.5 -0.3125 3.5 -0.3125 7 0 C7.66 0.66 8.32 1.32 9 2 C5.37 2.33 1.74 2.66 -2 3 C-1.34 2.01 -0.68 1.02 0 0 Z " fill="#C7E7FA" transform="translate(274,231)"/>
<path d="M0 0 C1.9451 2.91765 2.45276317 4.62537285 3 8 C3.99 8.33 4.98 8.66 6 9 C4.35 9.33 2.7 9.66 1 10 C0.67 6.7 0.34 3.4 0 0 Z " fill="#5899C8" transform="translate(229,206)"/>
<path d="M0 0 C0.99 0.33 1.98 0.66 3 1 C-1.455 3.97 -1.455 3.97 -6 7 C-6 6.01 -6 5.02 -6 4 C-3.1875 1.75 -3.1875 1.75 0 0 Z " fill="#5BAEE6" transform="translate(160,210)"/>
<path d="M0 0 C2.79872437 2.52788007 4.45773019 4.20411134 5 8 C0.125 6.25 0.125 6.25 -1 4 C-0.34 4 0.32 4 1 4 C0.67 2.68 0.34 1.36 0 0 Z " fill="#BEE5F7" transform="translate(277,192)"/>
<path d="M0 0 C2.475 0.495 2.475 0.495 5 1 C5 1.99 5 2.98 5 4 C3.68 4.33 2.36 4.66 1 5 C0.67 3.35 0.34 1.7 0 0 Z " fill="#EFFAFD" transform="translate(259,184)"/>
<path d="M0 0 C2.31 0.66 4.62 1.32 7 2 C7 2.66 7 3.32 7 4 C7.66 4 8.32 4 9 4 C9 4.66 9 5.32 9 6 C7.68 5.67 6.36 5.34 5 5 C5 4.34 5 3.68 5 3 C3.35 2.67 1.7 2.34 0 2 C0 1.34 0 0.68 0 0 Z " fill="#75C5EE" transform="translate(272,156)"/>
<path d="M0 0 C0.33 1.32 0.66 2.64 1 4 C-1.9375 3.625 -1.9375 3.625 -5 3 C-5.33 2.34 -5.66 1.68 -6 1 C-4 0 -4 0 0 0 Z " fill="#2A75C0" transform="translate(238,268)"/>
<path d="M0 0 C0 4.03223106 -1.64129026 5.80880447 -4 9 C-4.99 9.495 -4.99 9.495 -6 10 C-5.67 8.35 -5.34 6.7 -5 5 C-4.34 5 -3.68 5 -3 5 C-2.5359375 4.0409375 -2.5359375 4.0409375 -2.0625 3.0625 C-1 1 -1 1 0 0 Z " fill="#4FA6E2" transform="translate(147,223)"/>
<path d="M0 0 C1.98 0 3.96 0 6 0 C6 0.99 6 1.98 6 3 C3.69 3 1.38 3 -1 3 C-0.67 2.01 -0.34 1.02 0 0 Z " fill="#EAF1FB" transform="translate(209,221)"/>
<path d="M0 0 C2.97 0.33 5.94 0.66 9 1 C9 1.66 9 2.32 9 3 C6.69 3 4.38 3 2 3 C2 2.34 2 1.68 2 1 C1.34 0.67 0.68 0.34 0 0 Z " fill="#4FA4E0" transform="translate(315,207)"/>
<path d="M0 0 C0 0.66 0 1.32 0 2 C-2.31 2.66 -4.62 3.32 -7 4 C-7.66 3.34 -8.32 2.68 -9 2 C-5.5647952 -0.29013653 -4.014669 -0.17842973 0 0 Z " fill="#8DB7D4" transform="translate(251,193)"/>
<path d="M0 0 C2.3125 -0.25 2.3125 -0.25 5 0 C6.8125 2 6.8125 2 8 4 C4.79604584 4 2.90600261 3.25664978 0 2 C0 1.34 0 0.68 0 0 Z " fill="#8BB6D5" transform="translate(252,186)"/>
<path d="M0 0 C3.48539917 0.64544429 6.02819057 2.10134397 9 4 C7.3125 4.8125 7.3125 4.8125 5 5 C2.25 2.5625 2.25 2.5625 0 0 Z " fill="#C6E9F9" transform="translate(271,148)"/>
<path d="M0 0 C3.65316671 1.24976756 4.78065836 1.67098753 7 5 C6.01 5.66 5.02 6.32 4 7 C3.67 6.01 3.34 5.02 3 4 C2.01 3.34 1.02 2.68 0 2 C0 1.34 0 0.68 0 0 Z " fill="#F1F4F9" transform="translate(177,297)"/>
<path d="M0 0 C0.33 0.66 0.66 1.32 1 2 C1.66 2 2.32 2 3 2 C2.34 3.98 1.68 5.96 1 8 C0.87625 7.360625 0.7525 6.72125 0.625 6.0625 C0.315625 5.0415625 0.315625 5.0415625 0 4 C-0.66 3.67 -1.32 3.34 -2 3 C-1.34 2.01 -0.68 1.02 0 0 Z " fill="#CEEBF7" transform="translate(210,191)"/>
<path d="M0 0 C1.65 0 3.3 0 5 0 C5 0.99 5 1.98 5 3 C3.02 3 1.04 3 -1 3 C-0.67 2.01 -0.34 1.02 0 0 Z " fill="#1678D5" transform="translate(228,264)"/>
<path d="M0 0 C0.66 0 1.32 0 2 0 C2.30466674 5.28089024 2.317124 6.577168 -1 11 C-0.67 7.37 -0.34 3.74 0 0 Z " fill="#ABD8F3" transform="translate(283,232)"/>
<path d="M0 0 C-0.99 1.485 -0.99 1.485 -2 3 C-2.33 2.67 -2.66 2.34 -3 2 C-4.51469448 1.76807135 -6.03754562 1.58784762 -7.5625 1.4375 C-8.38878906 1.35371094 -9.21507812 1.26992187 -10.06640625 1.18359375 C-10.70449219 1.12300781 -11.34257812 1.06242188 -12 1 C-12 0.67 -12 0.34 -12 0 C-10.56359829 -0.19573608 -9.12580496 -0.38127816 -7.6875 -0.5625 C-6.88699219 -0.66691406 -6.08648437 -0.77132812 -5.26171875 -0.87890625 C-3 -1 -3 -1 0 0 Z " fill="#73A7CC" transform="translate(246,232)"/>
<path d="M0 0 C2 3 2 3 2 7 C1.34 7 0.68 7 0 7 C-0.66 5.02 -1.32 3.04 -2 1 C-1.34 0.67 -0.68 0.34 0 0 Z " fill="#4AA3DD" transform="translate(282,193)"/>
<path d="M0 0 C0.66 1.32 1.32 2.64 2 4 C0.68 4.33 -0.64 4.66 -2 5 C-2 5.99 -2 6.98 -2 8 C-2.66 8 -3.32 8 -4 8 C-2.25 2.25 -2.25 2.25 0 0 Z " fill="#A7D7F1" transform="translate(195,170)"/>
<path d="M0 0 C0.33 0.99 0.66 1.98 1 3 C0.01 4.485 0.01 4.485 -1 6 C-2.32 5.67 -3.64 5.34 -5 5 C-4.34 4.01 -3.68 3.02 -3 2 C-2.01 2 -1.02 2 0 2 C0 1.34 0 0.68 0 0 Z " fill="#8AD1F2" transform="translate(200,167)"/>
</svg>
